{
	"asset":{
		"generator":"Khronos glTF Blender I/O v3.5.30",
		"version":"2.0"
	},
	"scene":0,
	"scenes":[
		{
			"name":"Scene",
			"nodes":[
				0,
				1,
				2,
				3,
				4
			]
		}
	],
	"nodes":[
		{
			"mesh":0,
			"name":"Material2",
			"rotation":[
				-0.5,
				-0.5000000596046448,
				-0.5,
				0.4999999403953552
			],
			"scale":[
				0.17757496237754822,
				0.17757494747638702,
				0.17757494747638702
			],
			"translation":[
				-0.9221574664115906,
				0.05592910572886467,
				-0.060098543763160706
			]
		},
		{
			"mesh":1,
			"name":"Material2.001",
			"rotation":[
				-0.5,
				-0.5000000596046448,
				-0.5,
				0.4999999403953552
			],
			"scale":[
				0.17757496237754822,
				0.17757494747638702,
				0.17757494747638702
			],
			"translation":[
				-0.9221574664115906,
				0.05592910572886467,
				-0.060098543763160706
			]
		},
		{
			"mesh":2,
			"name":"Material2.002",
			"rotation":[
				-0.5,
				-0.5000000596046448,
				-0.5,
				0.4999999403953552
			],
			"scale":[
				0.17757496237754822,
				0.17757494747638702,
				0.17757494747638702
			],
			"translation":[
				-0.9221574664115906,
				0.05592910572886467,
				-0.060098543763160706
			]
		},
		{
			"mesh":3,
			"name":"Material2.003",
			"rotation":[
				-0.5,
				-0.5000000596046448,
				-0.5,
				0.4999999403953552
			],
			"scale":[
				0.17757496237754822,
				0.17757494747638702,
				0.17757494747638702
			],
			"translation":[
				-0.9221574664115906,
				0.05592910572886467,
				-0.060098543763160706
			]
		},
		{
			"mesh":4,
			"name":"Material2.004",
			"rotation":[
				-0.5,
				-0.5000000596046448,
				-0.5,
				0.4999999403953552
			],
			"scale":[
				0.17757496237754822,
				0.17757494747638702,
				0.17757494747638702
			],
			"translation":[
				-0.9221574664115906,
				0.05592910572886467,
				-0.060098543763160706
			]
		}
	],
	"materials":[
		{
			"name":"Fichte_Natur",
			"pbrMetallicRoughness":{
				"baseColorTexture":{
					"index":0
				},
				"metallicFactor":0,
				"roughnessFactor":0.6000000238418579
			}
		}
	],
	"meshes":[
		{
			"name":"Material2",
			"primitives":[
				{
					"attributes":{
						"POSITION":0,
						"TEXCOORD_0":1,
						"NORMAL":2
					},
					"indices":3,
					"material":0
				}
			]
		},
		{
			"name":"Material2.001",
			"primitives":[
				{
					"attributes":{
						"POSITION":4,
						"TEXCOORD_0":5,
						"NORMAL":6
					},
					"indices":7,
					"material":0
				}
			]
		},
		{
			"name":"Material2.002",
			"primitives":[
				{
					"attributes":{
						"POSITION":8,
						"TEXCOORD_0":9,
						"NORMAL":10
					},
					"indices":11,
					"material":0
				}
			]
		},
		{
			"name":"Material2.003",
			"primitives":[
				{
					"attributes":{
						"POSITION":12,
						"TEXCOORD_0":13,
						"NORMAL":14
					},
					"indices":15,
					"material":0
				}
			]
		},
		{
			"name":"Material2.004",
			"primitives":[
				{
					"attributes":{
						"POSITION":16,
						"TEXCOORD_0":17,
						"NORMAL":18
					},
					"indices":19,
					"material":0
				}
			]
		}
	],
	"textures":[
		{
			"sampler":0,
			"source":0
		}
	],
	"images":[
		{
			"bufferView":4,
			"mimeType":"image/jpeg",
			"name":"Fichte_Natur_baseColor"
		}
	],
	"accessors":[
		{
			"bufferView":0,
			"componentType":5126,
			"count":2064,
			"max":[
				1.1811020374298096,
				1.1811020374298096,
				2.125983953475952
			],
			"min":[
				-1.1102230246251565e-16,
				0,
				0
			],
			"type":"VEC3"
		},
		{
			"bufferView":1,
			"componentType":5126,
			"count":2064,
			"type":"VEC2"
		},
		{
			"bufferView":2,
			"componentType":5126,
			"count":2064,
			"type":"VEC3"
		},
		{
			"bufferView":3,
			"componentType":5123,
			"count":10788,
			"type":"SCALAR"
		},
		{
			"bufferView":5,
			"componentType":5126,
			"count":1251,
			"max":[
				0.861417293548584,
				0.861417293548584,
				3.59212589263916
			],
			"min":[
				0.3196850121021271,
				0.3196850121021271,
				2.98796010017395
			],
			"type":"VEC3"
		},
		{
			"bufferView":6,
			"componentType":5126,
			"count":1251,
			"type":"VEC2"
		},
		{
			"bufferView":7,
			"componentType":5126,
			"count":1251,
			"type":"VEC3"
		},
		{
			"bufferView":8,
			"componentType":5123,
			"count":5112,
			"type":"SCALAR"
		},
		{
			"bufferView":9,
			"componentType":5126,
			"count":1008,
			"max":[
				1.0286370515823364,
				1.0286370515823364,
				2.98796010017395
			],
			"min":[
				0.15246550738811493,
				0.15246550738811493,
				2.2827069759368896
			],
			"type":"VEC3"
		},
		{
			"bufferView":10,
			"componentType":5126,
			"count":1008,
			"type":"VEC2"
		},
		{
			"bufferView":11,
			"componentType":5126,
			"count":1008,
			"type":"VEC3"
		},
		{
			"bufferView":12,
			"componentType":5123,
			"count":5184,
			"type":"SCALAR"
		},
		{
			"bufferView":13,
			"componentType":5126,
			"count":192,
			"max":[
				0.861417293548584,
				0.861417293548584,
				2.204345941543579
			],
			"min":[
				0.3196850121021271,
				0.3196850121021271,
				2.125983953475952
			],
			"type":"VEC3"
		},
		{
			"bufferView":14,
			"componentType":5126,
			"count":192,
			"type":"VEC2"
		},
		{
			"bufferView":15,
			"componentType":5126,
			"count":192,
			"type":"VEC3"
		},
		{
			"bufferView":16,
			"componentType":5123,
			"count":576,
			"type":"SCALAR"
		},
		{
			"bufferView":17,
			"componentType":5126,
			"count":294,
			"max":[
				0.9291338920593262,
				0.9291338920593262,
				2.2827069759368896
			],
			"min":[
				0.25196850299835205,
				0.25196850299835205,
				2.204345941543579
			],
			"type":"VEC3"
		},
		{
			"bufferView":18,
			"componentType":5126,
			"count":294,
			"type":"VEC2"
		},
		{
			"bufferView":19,
			"componentType":5126,
			"count":294,
			"type":"VEC3"
		},
		{
			"bufferView":20,
			"componentType":5123,
			"count":864,
			"type":"SCALAR"
		}
	],
	"bufferViews":[
		{
			"buffer":0,
			"byteLength":24768,
			"byteOffset":0,
			"target":34962
		},
		{
			"buffer":0,
			"byteLength":16512,
			"byteOffset":24768,
			"target":34962
		},
		{
			"buffer":0,
			"byteLength":24768,
			"byteOffset":41280,
			"target":34962
		},
		{
			"buffer":0,
			"byteLength":21576,
			"byteOffset":66048,
			"target":34963
		},
		{
			"buffer":0,
			"byteLength":36794,
			"byteOffset":87624
		},
		{
			"buffer":0,
			"byteLength":15012,
			"byteOffset":124420,
			"target":34962
		},
		{
			"buffer":0,
			"byteLength":10008,
			"byteOffset":139432,
			"target":34962
		},
		{
			"buffer":0,
			"byteLength":15012,
			"byteOffset":149440,
			"target":34962
		},
		{
			"buffer":0,
			"byteLength":10224,
			"byteOffset":164452,
			"target":34963
		},
		{
			"buffer":0,
			"byteLength":12096,
			"byteOffset":174676,
			"target":34962
		},
		{
			"buffer":0,
			"byteLength":8064,
			"byteOffset":186772,
			"target":34962
		},
		{
			"buffer":0,
			"byteLength":12096,
			"byteOffset":194836,
			"target":34962
		},
		{
			"buffer":0,
			"byteLength":10368,
			"byteOffset":206932,
			"target":34963
		},
		{
			"buffer":0,
			"byteLength":2304,
			"byteOffset":217300,
			"target":34962
		},
		{
			"buffer":0,
			"byteLength":1536,
			"byteOffset":219604,
			"target":34962
		},
		{
			"buffer":0,
			"byteLength":2304,
			"byteOffset":221140,
			"target":34962
		},
		{
			"buffer":0,
			"byteLength":1152,
			"byteOffset":223444,
			"target":34963
		},
		{
			"buffer":0,
			"byteLength":3528,
			"byteOffset":224596,
			"target":34962
		},
		{
			"buffer":0,
			"byteLength":2352,
			"byteOffset":228124,
			"target":34962
		},
		{
			"buffer":0,
			"byteLength":3528,
			"byteOffset":230476,
			"target":34962
		},
		{
			"buffer":0,
			"byteLength":1728,
			"byteOffset":234004,
			"target":34963
		}
	],
	"samplers":[
		{
			"magFilter":9729,
			"minFilter":9987
		}
	],
	"buffers":[
		{
			"byteLength":235732,
			"uri":"data:application/octet-stream;base64,"
		}
	]
}
