{
	"asset":{
		"generator":"Khronos glTF Blender I/O v3.5.30",
		"version":"2.0"
	},
	"scene":0,
	"scenes":[
		{
			"name":"Scene",
			"nodes":[
				0,
				1
			]
		}
	],
	"nodes":[
		{
			"mesh":0,
			"name":"Material2.006",
			"rotation":[
				-0.6532815098762512,
				-0.27059808373451233,
				-0.27059805393218994,
				0.6532815098762512
			],
			"scale":[
				0.17757494747638702,
				0.17757493257522583,
				0.17757494747638702
			],
			"translation":[
				-0.9085183143615723,
				0.20860961079597473,
				-1.0357584953308105
			]
		},
		{
			"mesh":1,
			"name":"Material2.011",
			"rotation":[
				-0.6532815098762512,
				-0.27059808373451233,
				-0.27059805393218994,
				0.6532815098762512
			],
			"scale":[
				0.17757494747638702,
				0.17757493257522583,
				0.17757494747638702
			],
			"translation":[
				-0.9453265070915222,
				0.05592897906899452,
				-0.9989503622055054
			]
		}
	],
	"materials":[
		{
			"name":"Fichte_Natur",
			"pbrMetallicRoughness":{
				"baseColorTexture":{
					"index":0
				},
				"metallicFactor":0,
				"roughnessFactor":0.6000000238418579
			}
		}
	],
	"meshes":[
		{
			"name":"Material2.006",
			"primitives":[
				{
					"attributes":{
						"POSITION":0,
						"TEXCOORD_0":1,
						"NORMAL":2
					},
					"indices":3,
					"material":0
				}
			]
		},
		{
			"name":"Material2.011",
			"primitives":[
				{
					"attributes":{
						"POSITION":4,
						"TEXCOORD_0":5,
						"NORMAL":6
					},
					"indices":7,
					"material":0
				}
			]
		}
	],
	"textures":[
		{
			"sampler":0,
			"source":0
		}
	],
	"images":[
		{
			"bufferView":4,
			"mimeType":"image/jpeg",
			"name":"Fichte_Natur_baseColor"
		}
	],
	"accessors":[
		{
			"bufferView":0,
			"componentType":5126,
			"count":2846,
			"max":[
				1.0023130178451538,
				0.4334017038345337,
				1.5740309953689575
			],
			"min":[
				0,
				0,
				0
			],
			"type":"VEC3"
		},
		{
			"bufferView":1,
			"componentType":5126,
			"count":2846,
			"type":"VEC2"
		},
		{
			"bufferView":2,
			"componentType":5126,
			"count":2846,
			"type":"VEC3"
		},
		{
			"bufferView":3,
			"componentType":5123,
			"count":7320,
			"type":"SCALAR"
		},
		{
			"bufferView":5,
			"componentType":5126,
			"count":1728,
			"max":[
				1.0196850299835205,
				1.0196850299835205,
				0.8598095774650574
			],
			"min":[
				0,
				0,
				0
			],
			"type":"VEC3"
		},
		{
			"bufferView":6,
			"componentType":5126,
			"count":1728,
			"type":"VEC2"
		},
		{
			"bufferView":7,
			"componentType":5126,
			"count":1728,
			"type":"VEC3"
		},
		{
			"bufferView":8,
			"componentType":5123,
			"count":9192,
			"type":"SCALAR"
		}
	],
	"bufferViews":[
		{
			"buffer":0,
			"byteLength":34152,
			"byteOffset":0,
			"target":34962
		},
		{
			"buffer":0,
			"byteLength":22768,
			"byteOffset":34152,
			"target":34962
		},
		{
			"buffer":0,
			"byteLength":34152,
			"byteOffset":56920,
			"target":34962
		},
		{
			"buffer":0,
			"byteLength":14640,
			"byteOffset":91072,
			"target":34963
		},
		{
			"buffer":0,
			"byteLength":36794,
			"byteOffset":105712
		},
		{
			"buffer":0,
			"byteLength":20736,
			"byteOffset":142508,
			"target":34962
		},
		{
			"buffer":0,
			"byteLength":13824,
			"byteOffset":163244,
			"target":34962
		},
		{
			"buffer":0,
			"byteLength":20736,
			"byteOffset":177068,
			"target":34962
		},
		{
			"buffer":0,
			"byteLength":18384,
			"byteOffset":197804,
			"target":34963
		}
	],
	"samplers":[
		{
			"magFilter":9729,
			"minFilter":9987
		}
	],
	"buffers":[
		{
			"byteLength":216188,
			"uri":"data:application/octet-stream;base64,"
		}
	]
}
