{
	"asset":{
		"generator":"Khronos glTF Blender I/O v3.5.30",
		"version":"2.0"
	},
	"scene":0,
	"scenes":[
		{
			"name":"Scene",
			"nodes":[
				0,
				1,
				2,
				3,
				4
			]
		}
	],
	"nodes":[
		{
			"mesh":0,
			"name":"Material2.037",
			"rotation":[
				-0.70710688829422,
				0,
				0,
				0.7071066498756409
			],
			"scale":[
				0.17757493257522583,
				0.17757494747638702,
				0.17757494747638702
			],
			"translation":[
				-0.9207592010498047,
				0.05592908710241318,
				-0.20131954550743103
			]
		},
		{
			"mesh":1,
			"name":"Material2.038",
			"rotation":[
				-0.70710688829422,
				0,
				0,
				0.7071066498756409
			],
			"scale":[
				0.17757493257522583,
				0.17757494747638702,
				0.17757494747638702
			],
			"translation":[
				-0.9207592010498047,
				0.05592908710241318,
				-0.20131954550743103
			]
		},
		{
			"mesh":2,
			"name":"Material2.039",
			"rotation":[
				-0.70710688829422,
				0,
				0,
				0.7071066498756409
			],
			"scale":[
				0.17757493257522583,
				0.17757494747638702,
				0.17757494747638702
			],
			"translation":[
				-0.9207592010498047,
				0.05592908710241318,
				-0.20131954550743103
			]
		},
		{
			"mesh":3,
			"name":"Material2.040",
			"rotation":[
				-0.70710688829422,
				0,
				0,
				0.7071066498756409
			],
			"scale":[
				0.17757493257522583,
				0.17757494747638702,
				0.17757494747638702
			],
			"translation":[
				-0.9207592010498047,
				0.05592908710241318,
				-0.20131954550743103
			]
		},
		{
			"mesh":4,
			"name":"Material2.041",
			"rotation":[
				-0.70710688829422,
				0,
				0,
				0.7071066498756409
			],
			"scale":[
				0.17757493257522583,
				0.17757494747638702,
				0.17757494747638702
			],
			"translation":[
				-0.9207592010498047,
				0.05592908710241318,
				-0.20131954550743103
			]
		}
	],
	"materials":[
		{
			"name":"Fichte_Natur",
			"pbrMetallicRoughness":{
				"baseColorTexture":{
					"index":0
				},
				"metallicFactor":0,
				"roughnessFactor":0.6000000238418579
			}
		}
	],
	"meshes":[
		{
			"name":"Material2.037",
			"primitives":[
				{
					"attributes":{
						"POSITION":0,
						"TEXCOORD_0":1,
						"NORMAL":2
					},
					"indices":3,
					"material":0
				}
			]
		},
		{
			"name":"Material2.038",
			"primitives":[
				{
					"attributes":{
						"POSITION":4,
						"TEXCOORD_0":5,
						"NORMAL":6
					},
					"indices":7,
					"material":0
				}
			]
		},
		{
			"name":"Material2.039",
			"primitives":[
				{
					"attributes":{
						"POSITION":8,
						"TEXCOORD_0":9,
						"NORMAL":10
					},
					"indices":11,
					"material":0
				}
			]
		},
		{
			"name":"Material2.040",
			"primitives":[
				{
					"attributes":{
						"POSITION":12,
						"TEXCOORD_0":13,
						"NORMAL":14
					},
					"indices":15,
					"material":0
				}
			]
		},
		{
			"name":"Material2.041",
			"primitives":[
				{
					"attributes":{
						"POSITION":16,
						"TEXCOORD_0":17,
						"NORMAL":18
					},
					"indices":19,
					"material":0
				}
			]
		}
	],
	"textures":[
		{
			"sampler":0,
			"source":0
		}
	],
	"images":[
		{
			"bufferView":4,
			"mimeType":"image/jpeg",
			"name":"Fichte_Natur_baseColor"
		}
	],
	"accessors":[
		{
			"bufferView":0,
			"componentType":5126,
			"count":2016,
			"max":[
				1.1653540134429932,
				1.1653540134429932,
				1.9010809659957886
			],
			"min":[
				0,
				0,
				0
			],
			"type":"VEC3"
		},
		{
			"bufferView":1,
			"componentType":5126,
			"count":2016,
			"type":"VEC2"
		},
		{
			"bufferView":2,
			"componentType":5126,
			"count":2016,
			"type":"VEC3"
		},
		{
			"bufferView":3,
			"componentType":5123,
			"count":10500,
			"type":"SCALAR"
		},
		{
			"bufferView":5,
			"componentType":5126,
			"count":192,
			"max":[
				0.8264567255973816,
				0.8264567255973816,
				1.971606969833374
			],
			"min":[
				0.33889758586883545,
				0.33889758586883545,
				1.9010809659957886
			],
			"type":"VEC3"
		},
		{
			"bufferView":6,
			"componentType":5126,
			"count":192,
			"type":"VEC2"
		},
		{
			"bufferView":7,
			"componentType":5126,
			"count":192,
			"type":"VEC3"
		},
		{
			"bufferView":8,
			"componentType":5123,
			"count":576,
			"type":"SCALAR"
		},
		{
			"bufferView":9,
			"componentType":5126,
			"count":1130,
			"max":[
				1.0207630395889282,
				1.0058350563049316,
				2.730587959289551
			],
			"min":[
				0.14459140598773956,
				0.15951889753341675,
				2.0421319007873535
			],
			"type":"VEC3"
		},
		{
			"bufferView":10,
			"componentType":5126,
			"count":1130,
			"type":"VEC2"
		},
		{
			"bufferView":11,
			"componentType":5126,
			"count":1130,
			"type":"VEC3"
		},
		{
			"bufferView":12,
			"componentType":5123,
			"count":5040,
			"type":"SCALAR"
		},
		{
			"bufferView":13,
			"componentType":5126,
			"count":291,
			"max":[
				0.8874015808105469,
				0.8874015808105469,
				2.0421319007873535
			],
			"min":[
				0.27795279026031494,
				0.27795279026031494,
				1.971606969833374
			],
			"type":"VEC3"
		},
		{
			"bufferView":14,
			"componentType":5126,
			"count":291,
			"type":"VEC2"
		},
		{
			"bufferView":15,
			"componentType":5126,
			"count":291,
			"type":"VEC3"
		},
		{
			"bufferView":16,
			"componentType":5123,
			"count":864,
			"type":"SCALAR"
		},
		{
			"bufferView":17,
			"componentType":5126,
			"count":868,
			"max":[
				0.8929808139801025,
				0.8929808139801025,
				3.157360076904297
			],
			"min":[
				0.2723734974861145,
				0.2723734974861145,
				2.730587959289551
			],
			"type":"VEC3"
		},
		{
			"bufferView":18,
			"componentType":5126,
			"count":868,
			"type":"VEC2"
		},
		{
			"bufferView":19,
			"componentType":5126,
			"count":868,
			"type":"VEC3"
		},
		{
			"bufferView":20,
			"componentType":5123,
			"count":4764,
			"type":"SCALAR"
		}
	],
	"bufferViews":[
		{
			"buffer":0,
			"byteLength":24192,
			"byteOffset":0,
			"target":34962
		},
		{
			"buffer":0,
			"byteLength":16128,
			"byteOffset":24192,
			"target":34962
		},
		{
			"buffer":0,
			"byteLength":24192,
			"byteOffset":40320,
			"target":34962
		},
		{
			"buffer":0,
			"byteLength":21000,
			"byteOffset":64512,
			"target":34963
		},
		{
			"buffer":0,
			"byteLength":36794,
			"byteOffset":85512
		},
		{
			"buffer":0,
			"byteLength":2304,
			"byteOffset":122308,
			"target":34962
		},
		{
			"buffer":0,
			"byteLength":1536,
			"byteOffset":124612,
			"target":34962
		},
		{
			"buffer":0,
			"byteLength":2304,
			"byteOffset":126148,
			"target":34962
		},
		{
			"buffer":0,
			"byteLength":1152,
			"byteOffset":128452,
			"target":34963
		},
		{
			"buffer":0,
			"byteLength":13560,
			"byteOffset":129604,
			"target":34962
		},
		{
			"buffer":0,
			"byteLength":9040,
			"byteOffset":143164,
			"target":34962
		},
		{
			"buffer":0,
			"byteLength":13560,
			"byteOffset":152204,
			"target":34962
		},
		{
			"buffer":0,
			"byteLength":10080,
			"byteOffset":165764,
			"target":34963
		},
		{
			"buffer":0,
			"byteLength":3492,
			"byteOffset":175844,
			"target":34962
		},
		{
			"buffer":0,
			"byteLength":2328,
			"byteOffset":179336,
			"target":34962
		},
		{
			"buffer":0,
			"byteLength":3492,
			"byteOffset":181664,
			"target":34962
		},
		{
			"buffer":0,
			"byteLength":1728,
			"byteOffset":185156,
			"target":34963
		},
		{
			"buffer":0,
			"byteLength":10416,
			"byteOffset":186884,
			"target":34962
		},
		{
			"buffer":0,
			"byteLength":6944,
			"byteOffset":197300,
			"target":34962
		},
		{
			"buffer":0,
			"byteLength":10416,
			"byteOffset":204244,
			"target":34962
		},
		{
			"buffer":0,
			"byteLength":9528,
			"byteOffset":214660,
			"target":34963
		}
	],
	"samplers":[
		{
			"magFilter":9729,
			"minFilter":9987
		}
	],
	"buffers":[
		{
			"byteLength":224188,
			"uri":"data:application/octet-stream;base64,"
		}
	]
}
