{
  "asset": {
    "version": "2.0",
    "generator": "THREE.GLTFExporter r165"
  },
  "scenes": [
    {
      "name": "Scene",
      "nodes": [
        5
      ]
    }
  ],
  "scene": 0,
  "nodes": [
    {
      "matrix": [
        2.1168586368780228e-8,
        0,
        0.17757498354613457,
        0,
        -0.17757496864497035,
        4.2337169184846566e-8,
        0,
        0,
        2.116858992149412e-8,
        0.17757501334845927,
        2.116858992149412e-8,
        0,
        1.7344754934310913,
        0.05592910572886467,
        -0.06009851396083832,
        1
      ],
      "name": "Material2075",
      "extras": {
        "name": "Material2.075"
      },
      "mesh": 0
    },
    {
      "matrix": [
        2.1168586368780228e-8,
        0,
        0.17757498354613457,
        0,
        -0.17757496864497035,
        4.2337169184846566e-8,
        0,
        0,
        2.116858992149412e-8,
        0.17757501334845927,
        2.116858992149412e-8,
        0,
        1.7344754934310913,
        0.05592910572886467,
        -0.06009851396083832,
        1
      ],
      "name": "Material2076",
      "extras": {
        "name": "Material2.076"
      },
      "mesh": 1
    },
    {
      "matrix": [
        2.1168586368780228e-8,
        0,
        0.17757498354613457,
        0,
        -0.17757496864497035,
        4.2337169184846566e-8,
        0,
        0,
        2.116858992149412e-8,
        0.17757501334845927,
        2.116858992149412e-8,
        0,
        1.7344754934310913,
        0.05592910572886467,
        -0.06009851396083832,
        1
      ],
      "name": "Material2077",
      "extras": {
        "name": "Material2.077"
      },
      "mesh": 2
    },
    {
      "matrix": [
        2.1168586368780228e-8,
        0,
        0.17757498354613457,
        0,
        -0.17757496864497035,
        4.2337169184846566e-8,
        0,
        0,
        2.116858992149412e-8,
        0.17757501334845927,
        2.116858992149412e-8,
        0,
        1.7344754934310913,
        0.05592910572886467,
        -0.06009851396083832,
        1
      ],
      "name": "Material2078",
      "extras": {
        "name": "Material2.078"
      },
      "mesh": 3
    },
    {
      "matrix": [
        2.1168586368780228e-8,
        0,
        0.17757498354613457,
        0,
        -0.17757496864497035,
        4.2337169184846566e-8,
        0,
        0,
        2.116858992149412e-8,
        0.17757501334845927,
        2.116858992149412e-8,
        0,
        1.7344754934310913,
        0.05592910572886467,
        -0.06009851396083832,
        1
      ],
      "name": "Material2079",
      "extras": {
        "name": "Material2.079"
      },
      "mesh": 4
    },
    {
      "matrix": [
        1,
        0,
        0,
        0,
        0,
        1,
        0,
        0,
        0,
        0,
        1,
        0,
        -2.4514605960682174,
        0,
        -1.4050809597586944,
        1
      ],
      "name": "black_king.gltf",
      "children": [
        0,
        1,
        2,
        3,
        4
      ]
    }
  ],
  "bufferViews": [
    {
      "buffer": 0,
      "byteOffset": 0,
      "byteLength": 14844,
      "target": 34962,
      "byteStride": 12
    },
    {
      "buffer": 0,
      "byteOffset": 14844,
      "byteLength": 9896,
      "target": 34962,
      "byteStride": 8
    },
    {
      "buffer": 0,
      "byteOffset": 24740,
      "byteLength": 14844,
      "target": 34962,
      "byteStride": 12
    },
    {
      "buffer": 0,
      "byteOffset": 39584,
      "byteLength": 10224,
      "target": 34963
    },
    {
      "buffer": 0,
      "byteOffset": 49808,
      "byteLength": 24768,
      "target": 34962,
      "byteStride": 12
    },
    {
      "buffer": 0,
      "byteOffset": 74576,
      "byteLength": 16512,
      "target": 34962,
      "byteStride": 8
    },
    {
      "buffer": 0,
      "byteOffset": 91088,
      "byteLength": 24768,
      "target": 34962,
      "byteStride": 12
    },
    {
      "buffer": 0,
      "byteOffset": 115856,
      "byteLength": 21576,
      "target": 34963
    },
    {
      "buffer": 0,
      "byteOffset": 137432,
      "byteLength": 12096,
      "target": 34962,
      "byteStride": 12
    },
    {
      "buffer": 0,
      "byteOffset": 149528,
      "byteLength": 8064,
      "target": 34962,
      "byteStride": 8
    },
    {
      "buffer": 0,
      "byteOffset": 157592,
      "byteLength": 12096,
      "target": 34962,
      "byteStride": 12
    },
    {
      "buffer": 0,
      "byteOffset": 169688,
      "byteLength": 10368,
      "target": 34963
    },
    {
      "buffer": 0,
      "byteOffset": 180056,
      "byteLength": 2304,
      "target": 34962,
      "byteStride": 12
    },
    {
      "buffer": 0,
      "byteOffset": 182360,
      "byteLength": 1536,
      "target": 34962,
      "byteStride": 8
    },
    {
      "buffer": 0,
      "byteOffset": 183896,
      "byteLength": 2304,
      "target": 34962,
      "byteStride": 12
    },
    {
      "buffer": 0,
      "byteOffset": 186200,
      "byteLength": 1152,
      "target": 34963
    },
    {
      "buffer": 0,
      "byteOffset": 187352,
      "byteLength": 3456,
      "target": 34962,
      "byteStride": 12
    },
    {
      "buffer": 0,
      "byteOffset": 190808,
      "byteLength": 2304,
      "target": 34962,
      "byteStride": 8
    },
    {
      "buffer": 0,
      "byteOffset": 193112,
      "byteLength": 3456,
      "target": 34962,
      "byteStride": 12
    },
    {
      "buffer": 0,
      "byteOffset": 196568,
      "byteLength": 1728,
      "target": 34963
    }
  ],
  "buffers": [
    {
      "byteLength": 198296,
      "uri": "data:application/octet-stream;base64,"
    }
  ],
  "accessors": [
    {
      "bufferView": 0,
      "componentType": 5126,
      "count": 1237,
      "max": [
        0.861417293548584,
        0.861417293548584,
        3.59212589263916
      ],
      "min": [
        0.3196850121021271,
        0.3196850121021271,
        2.98796010017395
      ],
      "type": "VEC3"
    },
    {
      "bufferView": 1,
      "componentType": 5126,
      "count": 1237,
      "max": [
        -3.2649030685424805,
        1.5005509853363037
      ],
      "min": [
        -3.52066707611084,
        1.271217942237854
      ],
      "type": "VEC2"
    },
    {
      "bufferView": 2,
      "componentType": 5126,
      "count": 1237,
      "max": [
        1,
        1,
        1
      ],
      "min": [
        -1,
        -1,
        -1
      ],
      "type": "VEC3"
    },
    {
      "bufferView": 3,
      "componentType": 5123,
      "count": 5112,
      "max": [
        1236
      ],
      "min": [
        0
      ],
      "type": "SCALAR"
    },
    {
      "bufferView": 4,
      "componentType": 5126,
      "count": 2064,
      "max": [
        1.1811020374298096,
        1.1811020374298096,
        2.125983953475952
      ],
      "min": [
        -1.1102230246251565e-16,
        5.551115123125783e-17,
        0
      ],
      "type": "VEC3"
    },
    {
      "bufferView": 5,
      "componentType": 5126,
      "count": 2064,
      "max": [
        -2,
        1.6358840465545654
      ],
      "min": [
        -2.9000000953674316,
        1.1358840465545654
      ],
      "type": "VEC2"
    },
    {
      "bufferView": 6,
      "componentType": 5126,
      "count": 2064,
      "max": [
        1,
        1,
        1
      ],
      "min": [
        -1,
        -1,
        -1
      ],
      "type": "VEC3"
    },
    {
      "bufferView": 7,
      "componentType": 5123,
      "count": 10788,
      "max": [
        2063
      ],
      "min": [
        0
      ],
      "type": "SCALAR"
    },
    {
      "bufferView": 8,
      "componentType": 5126,
      "count": 1008,
      "max": [
        1.0286370515823364,
        1.0286370515823364,
        2.98796010017395
      ],
      "min": [
        0.15246550738811493,
        0.15246550738811493,
        2.2827069759368896
      ],
      "type": "VEC3"
    },
    {
      "bufferView": 9,
      "componentType": 5126,
      "count": 1008,
      "max": [
        -2.966346025466919,
        1.5713399648666382
      ],
      "min": [
        -3.2649030685424805,
        1.2004280090332031
      ],
      "type": "VEC2"
    },
    {
      "bufferView": 10,
      "componentType": 5126,
      "count": 1008,
      "max": [
        1,
        1,
        1
      ],
      "min": [
        -1,
        -1,
        -1
      ],
      "type": "VEC3"
    },
    {
      "bufferView": 11,
      "componentType": 5123,
      "count": 5184,
      "max": [
        1007
      ],
      "min": [
        0
      ],
      "type": "SCALAR"
    },
    {
      "bufferView": 12,
      "componentType": 5126,
      "count": 192,
      "max": [
        0.861417293548584,
        0.861417293548584,
        2.204345941543579
      ],
      "min": [
        0.3196850121021271,
        0.3196850121021271,
        2.125983953475952
      ],
      "type": "VEC3"
    },
    {
      "bufferView": 13,
      "componentType": 5126,
      "count": 192,
      "max": [
        -2.9000000953674316,
        1.5005509853363037
      ],
      "min": [
        -2.9331729412078857,
        1.271217942237854
      ],
      "type": "VEC2"
    },
    {
      "bufferView": 14,
      "componentType": 5126,
      "count": 192,
      "max": [
        1,
        1,
        1
      ],
      "min": [
        -1,
        -1,
        -1
      ],
      "type": "VEC3"
    },
    {
      "bufferView": 15,
      "componentType": 5123,
      "count": 576,
      "max": [
        191
      ],
      "min": [
        0
      ],
      "type": "SCALAR"
    },
    {
      "bufferView": 16,
      "componentType": 5126,
      "count": 288,
      "max": [
        0.9291338920593262,
        0.9291338920593262,
        2.2827069759368896
      ],
      "min": [
        0.25196850299835205,
        0.25196850299835205,
        2.204345941543579
      ],
      "type": "VEC3"
    },
    {
      "bufferView": 17,
      "componentType": 5126,
      "count": 288,
      "max": [
        -2.9331729412078857,
        1.5292179584503174
      ],
      "min": [
        -2.966346025466919,
        1.2425509691238403
      ],
      "type": "VEC2"
    },
    {
      "bufferView": 18,
      "componentType": 5126,
      "count": 288,
      "max": [
        1,
        1,
        1
      ],
      "min": [
        -1,
        -1,
        -1
      ],
      "type": "VEC3"
    },
    {
      "bufferView": 19,
      "componentType": 5123,
      "count": 864,
      "max": [
        287
      ],
      "min": [
        0
      ],
      "type": "SCALAR"
    }
  ],
  "materials": [
    {
      "pbrMetallicRoughness": {
        "metallicFactor": 0,
        "roughnessFactor": 0.4000000059604645,
        "baseColorTexture": {
          "index": 0,
          "texCoord": 0
        }
      },
      "name": "Fichte_dunkel.001"
    }
  ],
  "textures": [
    {
      "sampler": 0,
      "source": 0,
      "name": "Fichte_dunkel_baseColor"
    }
  ],
  "samplers": [
    {
      "magFilter": 9729,
      "minFilter": 9987,
      "wrapS": 10497,
      "wrapT": 10497
    }
  ],
  "images": [
    {
      "mimeType": "image/jpeg",
      "uri": "data:image/jpeg;base64,"
    }
  ],
  "meshes": [
    {
      "primitives": [
        {
          "mode": 4,
          "attributes": {
            "POSITION": 0,
            "TEXCOORD_0": 1,
            "NORMAL": 2
          },
          "indices": 3,
          "material": 0
        }
      ]
    },
    {
      "primitives": [
        {
          "mode": 4,
          "attributes": {
            "POSITION": 4,
            "TEXCOORD_0": 5,
            "NORMAL": 6
          },
          "indices": 7,
          "material": 0
        }
      ]
    },
    {
      "primitives": [
        {
          "mode": 4,
          "attributes": {
            "POSITION": 8,
            "TEXCOORD_0": 9,
            "NORMAL": 10
          },
          "indices": 11,
          "material": 0
        }
      ]
    },
    {
      "primitives": [
        {
          "mode": 4,
          "attributes": {
            "POSITION": 12,
            "TEXCOORD_0": 13,
            "NORMAL": 14
          },
          "indices": 15,
          "material": 0
        }
      ]
    },
    {
      "primitives": [
        {
          "mode": 4,
          "attributes": {
            "POSITION": 16,
            "TEXCOORD_0": 17,
            "NORMAL": 18
          },
          "indices": 19,
          "material": 0
        }
      ]
    }
  ]
}