{
  "asset": {
    "version": "2.0",
    "generator": "THREE.GLTFExporter r165"
  },
  "scenes": [
    {
      "name": "Scene",
      "nodes": [
        5
      ]
    }
  ],
  "scene": 0,
  "nodes": [
    {
      "matrix": [
        -2.1168586408209946e-8,
        -1.0584290049739608e-8,
        0.17757497296184327,
        0,
        -0.1775749580606812,
        4.233716666135539e-8,
        -1.058429168505363e-8,
        0,
        3.175288296990708e-8,
        0.1775750027641649,
        2.1168587437431127e-8,
        0,
        -0.813,
        0.05592924728989601,
        -1.482,
        1
      ],
      "name": "Material2071",
      "extras": {
        "name": "Material2.071"
      },
      "mesh": 0
    },
    {
      "matrix": [
        -2.1168586408209946e-8,
        -1.0584290049739608e-8,
        0.17757497296184327,
        0,
        -0.1775749580606812,
        4.233716666135539e-8,
        -1.058429168505363e-8,
        0,
        3.175288296990708e-8,
        0.1775750027641649,
        2.1168587437431127e-8,
        0,
        -0.813,
        0.05592924728989601,
        -1.482,
        1
      ],
      "name": "Material2072",
      "extras": {
        "name": "Material2.072"
      },
      "mesh": 1
    },
    {
      "matrix": [
        -2.1168586408209946e-8,
        -1.0584290049739608e-8,
        0.17757497296184327,
        0,
        -0.1775749580606812,
        4.233716666135539e-8,
        -1.058429168505363e-8,
        0,
        3.175288296990708e-8,
        0.1775750027641649,
        2.1168587437431127e-8,
        0,
        -0.813,
        0.05592924728989601,
        -1.482,
        1
      ],
      "name": "Material2073",
      "extras": {
        "name": "Material2.073"
      },
      "mesh": 2
    },
    {
      "matrix": [
        -2.1168586408209946e-8,
        -1.0584290049739608e-8,
        0.17757497296184327,
        0,
        -0.1775749580606812,
        4.233716666135539e-8,
        -1.058429168505363e-8,
        0,
        3.175288296990708e-8,
        0.1775750027641649,
        2.1168587437431127e-8,
        0,
        -0.813,
        0.05592924728989601,
        -1.482,
        1
      ],
      "name": "Material2074",
      "extras": {
        "name": "Material2.074"
      },
      "mesh": 3
    },
    {
      "name": "black_rookgltf",
      "extras": {
        "name": "black_rook.gltf"
      },
      "children": [
        0,
        1,
        2,
        3
      ]
    },
    {
      "matrix": [
        1,
        0,
        0,
        0,
        0,
        1,
        0,
        0,
        0,
        0,
        1,
        0,
        0.09801730417001586,
        0,
        0.04960909703853489,
        1
      ],
      "name": "black_rook.gltf",
      "children": [
        4
      ]
    }
  ],
  "bufferViews": [
    {
      "buffer": 0,
      "byteOffset": 0,
      "byteLength": 16704,
      "target": 34962,
      "byteStride": 12
    },
    {
      "buffer": 0,
      "byteOffset": 16704,
      "byteLength": 11136,
      "target": 34962,
      "byteStride": 8
    },
    {
      "buffer": 0,
      "byteOffset": 27840,
      "byteLength": 16704,
      "target": 34962,
      "byteStride": 12
    },
    {
      "buffer": 0,
      "byteOffset": 44544,
      "byteLength": 14664,
      "target": 34963
    },
    {
      "buffer": 0,
      "byteOffset": 59208,
      "byteLength": 6912,
      "target": 34962,
      "byteStride": 12
    },
    {
      "buffer": 0,
      "byteOffset": 66120,
      "byteLength": 4608,
      "target": 34962,
      "byteStride": 8
    },
    {
      "buffer": 0,
      "byteOffset": 70728,
      "byteLength": 6912,
      "target": 34962,
      "byteStride": 12
    },
    {
      "buffer": 0,
      "byteOffset": 77640,
      "byteLength": 4608,
      "target": 34963
    },
    {
      "buffer": 0,
      "byteOffset": 82248,
      "byteLength": 1152,
      "target": 34962,
      "byteStride": 12
    },
    {
      "buffer": 0,
      "byteOffset": 83400,
      "byteLength": 768,
      "target": 34962,
      "byteStride": 8
    },
    {
      "buffer": 0,
      "byteOffset": 84168,
      "byteLength": 1152,
      "target": 34962,
      "byteStride": 12
    },
    {
      "buffer": 0,
      "byteOffset": 85320,
      "byteLength": 576,
      "target": 34963
    },
    {
      "buffer": 0,
      "byteOffset": 85896,
      "byteLength": 6720,
      "target": 34962,
      "byteStride": 12
    },
    {
      "buffer": 0,
      "byteOffset": 92616,
      "byteLength": 4480,
      "target": 34962,
      "byteStride": 8
    },
    {
      "buffer": 0,
      "byteOffset": 97096,
      "byteLength": 6720,
      "target": 34962,
      "byteStride": 12
    },
    {
      "buffer": 0,
      "byteOffset": 103816,
      "byteLength": 2904,
      "target": 34963
    }
  ],
  "buffers": [
    {
      "byteLength": 106720,
      "uri": "data:application/octet-stream;base64,"
    }
  ],
  "accessors": [
    {
      "bufferView": 0,
      "componentType": 5126,
      "count": 1392,
      "max": [
        1.0196850299835205,
        1.0196850299835205,
        1.2427170276641846
      ],
      "min": [
        0,
        0,
        0
      ],
      "type": "VEC3"
    },
    {
      "bufferView": 1,
      "componentType": 5126,
      "count": 1392,
      "max": [
        -2,
        1.673825979232788
      ],
      "min": [
        -2.5260839462280273,
        1.2421590089797974
      ],
      "type": "VEC2"
    },
    {
      "bufferView": 2,
      "componentType": 5126,
      "count": 1392,
      "max": [
        1,
        1,
        1
      ],
      "min": [
        -1,
        -1,
        -1
      ],
      "type": "VEC3"
    },
    {
      "bufferView": 3,
      "componentType": 5123,
      "count": 7332,
      "max": [
        1391
      ],
      "min": [
        0
      ],
      "type": "SCALAR"
    },
    {
      "bufferView": 4,
      "componentType": 5126,
      "count": 576,
      "max": [
        0.975980281829834,
        0.975980281829834,
        1.4837579727172852
      ],
      "min": [
        0.04370475932955742,
        0.04370475932955742,
        1.2427170276641846
      ],
      "type": "VEC3"
    },
    {
      "bufferView": 5,
      "componentType": 5126,
      "count": 576,
      "max": [
        -2.5260839462280273,
        1.6553239822387695
      ],
      "min": [
        -2.6281239986419678,
        1.260661005973816
      ],
      "type": "VEC2"
    },
    {
      "bufferView": 6,
      "componentType": 5126,
      "count": 576,
      "max": [
        1,
        1,
        1
      ],
      "min": [
        -1,
        -1,
        -1
      ],
      "type": "VEC3"
    },
    {
      "bufferView": 7,
      "componentType": 5123,
      "count": 2304,
      "max": [
        575
      ],
      "min": [
        0
      ],
      "type": "SCALAR"
    },
    {
      "bufferView": 8,
      "componentType": 5126,
      "count": 96,
      "max": [
        0.936610221862793,
        0.936610221862793,
        1.5231289863586426
      ],
      "min": [
        0.08307483792304993,
        0.08307483792304993,
        1.4837579727172852
      ],
      "type": "VEC3"
    },
    {
      "bufferView": 9,
      "componentType": 5126,
      "count": 96,
      "max": [
        -2.6281239986419678,
        1.638658046722412
      ],
      "min": [
        -2.6447908878326416,
        1.2773280143737793
      ],
      "type": "VEC2"
    },
    {
      "bufferView": 10,
      "componentType": 5126,
      "count": 96,
      "max": [
        1,
        1,
        0.00039999998989515007
      ],
      "min": [
        -1,
        -1,
        -0.00039999998989515007
      ],
      "type": "VEC3"
    },
    {
      "bufferView": 11,
      "componentType": 5123,
      "count": 288,
      "max": [
        95
      ],
      "min": [
        0
      ],
      "type": "SCALAR"
    },
    {
      "bufferView": 12,
      "componentType": 5126,
      "count": 560,
      "max": [
        0.975980281829834,
        0.975980281829834,
        1.75934898853302
      ],
      "min": [
        0.04370475932955742,
        0.04370475932955742,
        1.5231289863586426
      ],
      "type": "VEC3"
    },
    {
      "bufferView": 13,
      "componentType": 5126,
      "count": 560,
      "max": [
        -2.6447908878326416,
        1.6553239822387695
      ],
      "min": [
        -2.744791030883789,
        1.260661005973816
      ],
      "type": "VEC2"
    },
    {
      "bufferView": 14,
      "componentType": 5126,
      "count": 560,
      "max": [
        1,
        1,
        1
      ],
      "min": [
        -1,
        -1,
        -1
      ],
      "type": "VEC3"
    },
    {
      "bufferView": 15,
      "componentType": 5123,
      "count": 1452,
      "max": [
        559
      ],
      "min": [
        0
      ],
      "type": "SCALAR"
    }
  ],
  "materials": [
    {
      "pbrMetallicRoughness": {
        "metallicFactor": 0,
        "roughnessFactor": 0.4000000059604645,
        "baseColorTexture": {
          "index": 0,
          "texCoord": 0
        }
      },
      "name": "Fichte_dunkel.001"
    }
  ],
  "textures": [
    {
      "sampler": 0,
      "source": 0,
      "name": "Fichte_dunkel_baseColor"
    }
  ],
  "samplers": [
    {
      "magFilter": 9729,
      "minFilter": 9987,
      "wrapS": 10497,
      "wrapT": 10497
    }
  ],
  "images": [
    {
      "mimeType": "image/jpeg",
      "uri": "data:image/jpeg;base64,"
    }
  ],
  "meshes": [
    {
      "primitives": [
        {
          "mode": 4,
          "attributes": {
            "POSITION": 0,
            "TEXCOORD_0": 1,
            "NORMAL": 2
          },
          "indices": 3,
          "material": 0
        }
      ]
    },
    {
      "primitives": [
        {
          "mode": 4,
          "attributes": {
            "POSITION": 4,
            "TEXCOORD_0": 5,
            "NORMAL": 6
          },
          "indices": 7,
          "material": 0
        }
      ]
    },
    {
      "primitives": [
        {
          "mode": 4,
          "attributes": {
            "POSITION": 8,
            "TEXCOORD_0": 9,
            "NORMAL": 10
          },
          "indices": 11,
          "material": 0
        }
      ]
    },
    {
      "primitives": [
        {
          "mode": 4,
          "attributes": {
            "POSITION": 12,
            "TEXCOORD_0": 13,
            "NORMAL": 14
          },
          "indices": 15,
          "material": 0
        }
      ]
    }
  ]
}