{
  "asset": {
    "version": "2.0",
    "generator": "THREE.GLTFExporter r165"
  },
  "scenes": [
    {
      "name": "Scene",
      "nodes": [
        6
      ]
    }
  ],
  "scene": 0,
  "nodes": [
    {
      "matrix": [
        2.1168586368780228e-8,
        0,
        0.17757498354613457,
        0,
        -0.17757496864497035,
        4.2337169184846566e-8,
        0,
        0,
        2.116858992149412e-8,
        0.17757501334845927,
        2.116858992149412e-8,
        0,
        1.7330772876739502,
        0.05592905730009079,
        -0.40825730562210083,
        1
      ],
      "name": "Material2062",
      "extras": {
        "name": "Material2.062"
      },
      "mesh": 0
    },
    {
      "matrix": [
        2.1168586368780228e-8,
        0,
        0.17757498354613457,
        0,
        -0.17757496864497035,
        4.2337169184846566e-8,
        0,
        0,
        2.116858992149412e-8,
        0.17757501334845927,
        2.116858992149412e-8,
        0,
        1.7330772876739502,
        0.05592905730009079,
        -0.40825730562210083,
        1
      ],
      "name": "Material2063",
      "extras": {
        "name": "Material2.063"
      },
      "mesh": 1
    },
    {
      "matrix": [
        2.1168586368780228e-8,
        0,
        0.17757498354613457,
        0,
        -0.17757496864497035,
        4.2337169184846566e-8,
        0,
        0,
        2.116858992149412e-8,
        0.17757501334845927,
        2.116858992149412e-8,
        0,
        1.7330772876739502,
        0.05592905730009079,
        -0.40825730562210083,
        1
      ],
      "name": "Material2064",
      "extras": {
        "name": "Material2.064"
      },
      "mesh": 2
    },
    {
      "matrix": [
        2.1168586368780228e-8,
        0,
        0.17757498354613457,
        0,
        -0.17757496864497035,
        4.2337169184846566e-8,
        0,
        0,
        2.116858992149412e-8,
        0.17757501334845927,
        2.116858992149412e-8,
        0,
        1.7330772876739502,
        0.05592905730009079,
        -0.40825730562210083,
        1
      ],
      "name": "Material2065",
      "extras": {
        "name": "Material2.065"
      },
      "mesh": 3
    },
    {
      "matrix": [
        2.1168586368780228e-8,
        0,
        0.17757498354613457,
        0,
        -0.17757496864497035,
        4.2337169184846566e-8,
        0,
        0,
        2.116858992149412e-8,
        0.17757501334845927,
        2.116858992149412e-8,
        0,
        1.7330772876739502,
        0.05592905730009079,
        -0.40825730562210083,
        1
      ],
      "name": "Material2066",
      "extras": {
        "name": "Material2.066"
      },
      "mesh": 4
    },
    {
      "matrix": [
        2.1168586368780228e-8,
        0,
        0.17757498354613457,
        0,
        -0.17757496864497035,
        4.2337169184846566e-8,
        0,
        0,
        2.116858992149412e-8,
        0.17757501334845927,
        2.116858992149412e-8,
        0,
        1.7330772876739502,
        0.05592905730009079,
        -0.40825730562210083,
        1
      ],
      "name": "Material2067",
      "extras": {
        "name": "Material2.067"
      }
    },
    {
      "matrix": [
        1,
        0,
        0,
        0,
        0,
        1,
        0,
        0,
        0,
        0,
        1,
        0,
        -2.4479534233087814,
        0,
        -1.0469562706034616,
        1
      ],
      "name": "black_queen.gltf",
      "children": [
        0,
        1,
        2,
        3,
        4,
        5
      ]
    }
  ],
  "bufferViews": [
    {
      "buffer": 0,
      "byteOffset": 0,
      "byteLength": 13560,
      "target": 34962,
      "byteStride": 12
    },
    {
      "buffer": 0,
      "byteOffset": 13560,
      "byteLength": 9040,
      "target": 34962,
      "byteStride": 8
    },
    {
      "buffer": 0,
      "byteOffset": 22600,
      "byteLength": 13560,
      "target": 34962,
      "byteStride": 12
    },
    {
      "buffer": 0,
      "byteOffset": 36160,
      "byteLength": 10080,
      "target": 34963
    },
    {
      "buffer": 0,
      "byteOffset": 46240,
      "byteLength": 24192,
      "target": 34962,
      "byteStride": 12
    },
    {
      "buffer": 0,
      "byteOffset": 70432,
      "byteLength": 16128,
      "target": 34962,
      "byteStride": 8
    },
    {
      "buffer": 0,
      "byteOffset": 86560,
      "byteLength": 24192,
      "target": 34962,
      "byteStride": 12
    },
    {
      "buffer": 0,
      "byteOffset": 110752,
      "byteLength": 21000,
      "target": 34963
    },
    {
      "buffer": 0,
      "byteOffset": 131752,
      "byteLength": 10416,
      "target": 34962,
      "byteStride": 12
    },
    {
      "buffer": 0,
      "byteOffset": 142168,
      "byteLength": 6944,
      "target": 34962,
      "byteStride": 8
    },
    {
      "buffer": 0,
      "byteOffset": 149112,
      "byteLength": 10416,
      "target": 34962,
      "byteStride": 12
    },
    {
      "buffer": 0,
      "byteOffset": 159528,
      "byteLength": 9528,
      "target": 34963
    },
    {
      "buffer": 0,
      "byteOffset": 169056,
      "byteLength": 2304,
      "target": 34962,
      "byteStride": 12
    },
    {
      "buffer": 0,
      "byteOffset": 171360,
      "byteLength": 1536,
      "target": 34962,
      "byteStride": 8
    },
    {
      "buffer": 0,
      "byteOffset": 172896,
      "byteLength": 2304,
      "target": 34962,
      "byteStride": 12
    },
    {
      "buffer": 0,
      "byteOffset": 175200,
      "byteLength": 1152,
      "target": 34963
    },
    {
      "buffer": 0,
      "byteOffset": 176352,
      "byteLength": 3456,
      "target": 34962,
      "byteStride": 12
    },
    {
      "buffer": 0,
      "byteOffset": 179808,
      "byteLength": 2304,
      "target": 34962,
      "byteStride": 8
    },
    {
      "buffer": 0,
      "byteOffset": 182112,
      "byteLength": 3456,
      "target": 34962,
      "byteStride": 12
    },
    {
      "buffer": 0,
      "byteOffset": 185568,
      "byteLength": 1728,
      "target": 34963
    }
  ],
  "buffers": [
    {
      "byteLength": 187296,
      "uri": "data:application/octet-stream;base64,"
    }
  ],
  "accessors": [
    {
      "bufferView": 0,
      "componentType": 5126,
      "count": 1130,
      "max": [
        1.0207630395889282,
        1.0058350563049316,
        2.730587959289551
      ],
      "min": [
        0.14459140598773956,
        0.15951889753341675,
        2.0421319007873535
      ],
      "type": "VEC3"
    },
    {
      "bufferView": 1,
      "componentType": 5126,
      "count": 1130,
      "max": [
        -2.864501953125,
        2.1455869674682617
      ],
      "min": [
        -3.155949115753174,
        1.7746740579605103
      ],
      "type": "VEC2"
    },
    {
      "bufferView": 2,
      "componentType": 5126,
      "count": 1130,
      "max": [
        1,
        1,
        1
      ],
      "min": [
        -1,
        -1,
        -1
      ],
      "type": "VEC3"
    },
    {
      "bufferView": 3,
      "componentType": 5123,
      "count": 5040,
      "max": [
        1129
      ],
      "min": [
        0
      ],
      "type": "SCALAR"
    },
    {
      "bufferView": 4,
      "componentType": 5126,
      "count": 2016,
      "max": [
        1.1653540134429932,
        1.1653540134429932,
        1.9010809659957886
      ],
      "min": [
        0,
        0,
        0
      ],
      "type": "VEC3"
    },
    {
      "bufferView": 5,
      "componentType": 5126,
      "count": 2016,
      "max": [
        -2,
        2.206796884536743
      ],
      "min": [
        -2.80479097366333,
        1.7134640216827393
      ],
      "type": "VEC2"
    },
    {
      "bufferView": 6,
      "componentType": 5126,
      "count": 2016,
      "max": [
        1,
        1,
        1
      ],
      "min": [
        -1,
        -1,
        -1
      ],
      "type": "VEC3"
    },
    {
      "bufferView": 7,
      "componentType": 5123,
      "count": 10500,
      "max": [
        2015
      ],
      "min": [
        0
      ],
      "type": "SCALAR"
    },
    {
      "bufferView": 8,
      "componentType": 5126,
      "count": 868,
      "max": [
        0.8929808139801025,
        0.8929808139801025,
        3.157360076904297
      ],
      "min": [
        0.2723734974861145,
        0.2723734974861145,
        2.730587959289551
      ],
      "type": "VEC3"
    },
    {
      "bufferView": 9,
      "componentType": 5126,
      "count": 868,
      "max": [
        -3.155949115753174,
        2.091491937637329
      ],
      "min": [
        -3.336616039276123,
        1.828768014907837
      ],
      "type": "VEC2"
    },
    {
      "bufferView": 10,
      "componentType": 5126,
      "count": 868,
      "max": [
        0.9998999834060669,
        0.9998999834060669,
        1
      ],
      "min": [
        -0.9998999834060669,
        -0.9998999834060669,
        -1
      ],
      "type": "VEC3"
    },
    {
      "bufferView": 11,
      "componentType": 5123,
      "count": 4764,
      "max": [
        867
      ],
      "min": [
        0
      ],
      "type": "SCALAR"
    },
    {
      "bufferView": 12,
      "componentType": 5126,
      "count": 192,
      "max": [
        0.8264567255973816,
        0.8264567255973816,
        1.971606969833374
      ],
      "min": [
        0.33889758586883545,
        0.33889758586883545,
        1.9010809659957886
      ],
      "type": "VEC3"
    },
    {
      "bufferView": 13,
      "componentType": 5126,
      "count": 192,
      "max": [
        -2.80479097366333,
        2.0633299350738525
      ],
      "min": [
        -2.8346469402313232,
        1.8569300174713135
      ],
      "type": "VEC2"
    },
    {
      "bufferView": 14,
      "componentType": 5126,
      "count": 192,
      "max": [
        1,
        1,
        1
      ],
      "min": [
        -1,
        -1,
        -1
      ],
      "type": "VEC3"
    },
    {
      "bufferView": 15,
      "componentType": 5123,
      "count": 576,
      "max": [
        191
      ],
      "min": [
        0
      ],
      "type": "SCALAR"
    },
    {
      "bufferView": 16,
      "componentType": 5126,
      "count": 288,
      "max": [
        0.8874015808105469,
        0.8874015808105469,
        2.0421319007873535
      ],
      "min": [
        0.27795279026031494,
        0.27795279026031494,
        1.971606969833374
      ],
      "type": "VEC3"
    },
    {
      "bufferView": 17,
      "componentType": 5126,
      "count": 288,
      "max": [
        -2.8346469402313232,
        2.08912992477417
      ],
      "min": [
        -2.864501953125,
        1.831130027770996
      ],
      "type": "VEC2"
    },
    {
      "bufferView": 18,
      "componentType": 5126,
      "count": 288,
      "max": [
        1,
        1,
        1
      ],
      "min": [
        -1,
        -1,
        -1
      ],
      "type": "VEC3"
    },
    {
      "bufferView": 19,
      "componentType": 5123,
      "count": 864,
      "max": [
        287
      ],
      "min": [
        0
      ],
      "type": "SCALAR"
    }
  ],
  "materials": [
    {
      "pbrMetallicRoughness": {
        "metallicFactor": 0,
        "roughnessFactor": 0.4000000059604645,
        "baseColorTexture": {
          "index": 0,
          "texCoord": 0
        }
      },
      "name": "Fichte_dunkel.001"
    }
  ],
  "textures": [
    {
      "sampler": 0,
      "source": 0,
      "name": "Fichte_dunkel_baseColor"
    }
  ],
  "samplers": [
    {
      "magFilter": 9729,
      "minFilter": 9987,
      "wrapS": 10497,
      "wrapT": 10497
    }
  ],
  "images": [
    {
      "mimeType": "image/jpeg",
      "uri": "data:image/jpeg;base64,"
    }
  ],
  "meshes": [
    {
      "primitives": [
        {
          "mode": 4,
          "attributes": {
            "POSITION": 0,
            "TEXCOORD_0": 1,
            "NORMAL": 2
          },
          "indices": 3,
          "material": 0
        }
      ]
    },
    {
      "primitives": [
        {
          "mode": 4,
          "attributes": {
            "POSITION": 4,
            "TEXCOORD_0": 5,
            "NORMAL": 6
          },
          "indices": 7,
          "material": 0
        }
      ]
    },
    {
      "primitives": [
        {
          "mode": 4,
          "attributes": {
            "POSITION": 8,
            "TEXCOORD_0": 9,
            "NORMAL": 10
          },
          "indices": 11,
          "material": 0
        }
      ]
    },
    {
      "primitives": [
        {
          "mode": 4,
          "attributes": {
            "POSITION": 12,
            "TEXCOORD_0": 13,
            "NORMAL": 14
          },
          "indices": 15,
          "material": 0
        }
      ]
    },
    {
      "primitives": [
        {
          "mode": 4,
          "attributes": {
            "POSITION": 16,
            "TEXCOORD_0": 17,
            "NORMAL": 18
          },
          "indices": 19,
          "material": 0
        }
      ]
    }
  ]
}