{
  "asset": {
    "version": "2.0",
    "generator": "THREE.GLTFExporter r165"
  },
  "scenes": [
    {
      "name": "Scene",
      "nodes": [
        3
      ]
    }
  ],
  "scene": 0,
  "nodes": [
    {
      "matrix": [
        -0.1255644554598598,
        8.17316963823914e-10,
        -0.12556444903969913,
        0,
        0.12556446631326473,
        1.1839072381856347e-8,
        -0.1255644723948823,
        0,
        -7.554171013750836e-9,
        0.1775749755127117,
        9.04857621384925e-9,
        0,
        -0.741967602671632,
        0.20860987901687622,
        -1.250456981215595,
        1
      ],
      "name": "Material2051",
      "extras": {
        "name": "Material2.051"
      },
      "mesh": 0
    },
    {
      "matrix": [
        -0.1255644554598598,
        8.17316963823914e-10,
        -0.12556444903969913,
        0,
        0.12556446631326473,
        1.1839072381856347e-8,
        -0.1255644723948823,
        0,
        -7.554171013750836e-9,
        0.1775749755127117,
        9.04857621384925e-9,
        0,
        -0.7826435611292722,
        0.05592922866344452,
        -1.2193780037147164,
        1
      ],
      "name": "Material2052",
      "extras": {
        "name": "Material2.052"
      },
      "mesh": 1
    },
    {
      "name": "black_knightgltf",
      "extras": {
        "name": "black_knight.gltf"
      },
      "children": [
        0,
        1
      ]
    },
    {
      "matrix": [
        1,
        0,
        0,
        0,
        0,
        1,
        0,
        0,
        0,
        0,
        1,
        0,
        -0.040999356236757045,
        0,
        -0.009401993568434852,
        1
      ],
      "name": "black_knight.gltf",
      "children": [
        2
      ]
    }
  ],
  "bufferViews": [
    {
      "buffer": 0,
      "byteOffset": 0,
      "byteLength": 33552,
      "target": 34962,
      "byteStride": 12
    },
    {
      "buffer": 0,
      "byteOffset": 33552,
      "byteLength": 22368,
      "target": 34962,
      "byteStride": 8
    },
    {
      "buffer": 0,
      "byteOffset": 55920,
      "byteLength": 33552,
      "target": 34962,
      "byteStride": 12
    },
    {
      "buffer": 0,
      "byteOffset": 89472,
      "byteLength": 14640,
      "target": 34963
    },
    {
      "buffer": 0,
      "byteOffset": 104112,
      "byteLength": 20736,
      "target": 34962,
      "byteStride": 12
    },
    {
      "buffer": 0,
      "byteOffset": 124848,
      "byteLength": 13824,
      "target": 34962,
      "byteStride": 8
    },
    {
      "buffer": 0,
      "byteOffset": 138672,
      "byteLength": 20736,
      "target": 34962,
      "byteStride": 12
    },
    {
      "buffer": 0,
      "byteOffset": 159408,
      "byteLength": 18384,
      "target": 34963
    }
  ],
  "buffers": [
    {
      "byteLength": 177792,
      "uri": "data:application/octet-stream;base64,"
    }
  ],
  "accessors": [
    {
      "bufferView": 0,
      "componentType": 5126,
      "count": 2796,
      "max": [
        1.0023130178451538,
        0.4334017038345337,
        1.5740309953689575
      ],
      "min": [
        0,
        0,
        0
      ],
      "type": "VEC3"
    },
    {
      "bufferView": 1,
      "componentType": 5126,
      "count": 2796,
      "max": [
        -2.363986015319824,
        1.355836033821106
      ],
      "min": [
        -3.0303258895874023,
        0.9315239787101746
      ],
      "type": "VEC2"
    },
    {
      "bufferView": 2,
      "componentType": 5126,
      "count": 2796,
      "max": [
        0.9997000098228455,
        1,
        1
      ],
      "min": [
        -0.9997000098228455,
        -1,
        -1
      ],
      "type": "VEC3"
    },
    {
      "bufferView": 3,
      "componentType": 5123,
      "count": 7320,
      "max": [
        2795
      ],
      "min": [
        0
      ],
      "type": "SCALAR"
    },
    {
      "bufferView": 4,
      "componentType": 5126,
      "count": 1728,
      "max": [
        1.0196850299835205,
        1.0196850299835205,
        0.8598095774650574
      ],
      "min": [
        0,
        0,
        0
      ],
      "type": "VEC3"
    },
    {
      "bufferView": 5,
      "componentType": 5126,
      "count": 1728,
      "max": [
        -2,
        1.36319100856781
      ],
      "min": [
        -2.363986015319824,
        0.9315239191055298
      ],
      "type": "VEC2"
    },
    {
      "bufferView": 6,
      "componentType": 5126,
      "count": 1728,
      "max": [
        1,
        1,
        1
      ],
      "min": [
        -1,
        -1,
        -1
      ],
      "type": "VEC3"
    },
    {
      "bufferView": 7,
      "componentType": 5123,
      "count": 9192,
      "max": [
        1727
      ],
      "min": [
        0
      ],
      "type": "SCALAR"
    }
  ],
  "materials": [
    {
      "pbrMetallicRoughness": {
        "metallicFactor": 0,
        "roughnessFactor": 0.4000000059604645,
        "baseColorTexture": {
          "index": 0,
          "texCoord": 0
        }
      },
      "name": "Fichte_dunkel.001"
    }
  ],
  "textures": [
    {
      "sampler": 0,
      "source": 0,
      "name": "Fichte_dunkel_baseColor"
    }
  ],
  "samplers": [
    {
      "magFilter": 9729,
      "minFilter": 9987,
      "wrapS": 10497,
      "wrapT": 10497
    }
  ],
  "images": [
    {
      "mimeType": "image/jpeg",
      "uri": "data:image/jpeg;base64,"
    }
  ],
  "meshes": [
    {
      "primitives": [
        {
          "mode": 4,
          "attributes": {
            "POSITION": 0,
            "TEXCOORD_0": 1,
            "NORMAL": 2
          },
          "indices": 3,
          "material": 0
        }
      ]
    },
    {
      "primitives": [
        {
          "mode": 4,
          "attributes": {
            "POSITION": 4,
            "TEXCOORD_0": 5,
            "NORMAL": 6
          },
          "indices": 7,
          "material": 0
        }
      ]
    }
  ]
}