{
  "asset": {
    "version": "2.0",
    "generator": "THREE.GLTFExporter r164"
  },
  "scenes": [
    {
      "name": "Scene",
      "nodes": [
        1
      ]
    }
  ],
  "scene": 0,
  "nodes": [
    {
      "matrix": [
        -2.1168585107034385e-8,
        -2.1168585737907382e-8,
        -0.17757496237754633,
        0,
        -0.1775749474763864,
        2.523491779646581e-15,
        2.116858396155049e-8,
        0,
        -6.308729449116452e-16,
        0.1775749474763864,
        -2.1168583330677545e-8,
        0,
        -0.02801400291739442,
        0,
        -1.2679051162085968,
        1
      ],
      "name": "Material2012",
      "extras": {
        "name": "Material2.012"
      },
      "mesh": 0
    },
    {
      "matrix": [
        1,
        0,
        0,
        0,
        0,
        1,
        0,
        0,
        0,
        0,
        1,
        0,
        -0.7,
        0.057000439000954084,
        0,
        1
      ],
      "name": "white_bishop.gltf",
      "children": [
        0
      ]
    }
  ],
  "bufferViews": [
    {
      "buffer": 0,
      "byteOffset": 0,
      "byteLength": 44496,
      "target": 34962,
      "byteStride": 12
    },
    {
      "buffer": 0,
      "byteOffset": 44496,
      "byteLength": 29664,
      "target": 34962,
      "byteStride": 8
    },
    {
      "buffer": 0,
      "byteOffset": 74160,
      "byteLength": 44496,
      "target": 34962,
      "byteStride": 12
    },
    {
      "buffer": 0,
      "byteOffset": 118656,
      "byteLength": 39024,
      "target": 34963
    }
  ],
  "buffers": [
    {
      "byteLength": 157680,
      "uri": "data:application/octet-stream;base64,"
    }
  ],
  "accessors": [
    {
      "bufferView": 0,
      "componentType": 5126,
      "count": 3708,
      "max": [
        1.0196850299835205,
        1.0196850299835205,
        2.4409449100494385
      ],
      "min": [
        0,
        0,
        0
      ],
      "type": "VEC3"
    },
    {
      "bufferView": 1,
      "componentType": 5126,
      "count": 3708,
      "max": [
        -2,
        4.8740668296813965
      ],
      "min": [
        -3.0333330631256104,
        4.442399978637695
      ],
      "type": "VEC2"
    },
    {
      "bufferView": 2,
      "componentType": 5126,
      "count": 3708,
      "max": [
        1,
        1,
        1
      ],
      "min": [
        -1,
        -1,
        -1
      ],
      "type": "VEC3"
    },
    {
      "bufferView": 3,
      "componentType": 5123,
      "count": 19512,
      "max": [
        3707
      ],
      "min": [
        0
      ],
      "type": "SCALAR"
    }
  ],
  "materials": [
    {
      "pbrMetallicRoughness": {
        "metallicFactor": 0,
        "roughnessFactor": 0.6000000238418579,
        "baseColorTexture": {
          "index": 0,
          "texCoord": 0
        }
      },
      "name": "Fichte_Natur"
    }
  ],
  "textures": [
    {
      "sampler": 0,
      "source": 0,
      "name": "Fichte_Natur_baseColor"
    }
  ],
  "samplers": [
    {
      "magFilter": 9729,
      "minFilter": 9987,
      "wrapS": 10497,
      "wrapT": 10497
    }
  ],
  "images": [
    {
      "mimeType": "image/jpeg",
      "uri": "data:image/jpeg;base64,"
    }
  ],
  "meshes": [
    {
      "primitives": [
        {
          "mode": 4,
          "attributes": {
            "POSITION": 0,
            "TEXCOORD_0": 1,
            "NORMAL": 2
          },
          "indices": 3,
          "material": 0
        }
      ]
    }
  ]
}