{
  "asset": {
    "version": "2.0",
    "generator": "THREE.GLTFExporter r165"
  },
  "scenes": [
    {
      "name": "Scene",
      "nodes": [
        1
      ]
    }
  ],
  "scene": 0,
  "nodes": [
    {
      "matrix": [
        -0.12556447879319182,
        -4.76367475631831e-9,
        0.12556446910376046,
        0,
        0.12556446236690733,
        0,
        0.125564474029517,
        0,
        -1.9731783642969553e-9,
        0.1775749589769148,
        6.73685303701802e-9,
        0,
        -0.8132412172779957,
        0.05592891573905945,
        -1.4819009692889078,
        1
      ],
      "name": "Material2017",
      "extras": {
        "name": "Material2.017"
      },
      "mesh": 0
    },
    {
      "name": "white_pawn.gltf",
      "children": [
        0
      ]
    }
  ],
  "bufferViews": [
    {
      "buffer": 0,
      "byteOffset": 0,
      "byteLength": 27672,
      "target": 34962,
      "byteStride": 12
    },
    {
      "buffer": 0,
      "byteOffset": 27672,
      "byteLength": 18448,
      "target": 34962,
      "byteStride": 8
    },
    {
      "buffer": 0,
      "byteOffset": 46120,
      "byteLength": 27672,
      "target": 34962,
      "byteStride": 12
    },
    {
      "buffer": 0,
      "byteOffset": 73792,
      "byteLength": 24744,
      "target": 34963
    }
  ],
  "buffers": [
    {
      "byteLength": 98536,
      "uri": "data:application/octet-stream;base64,"
    }
  ],
  "accessors": [
    {
      "bufferView": 0,
      "componentType": 5126,
      "count": 2306,
      "max": [
        1.0196850299835205,
        1.0196850299835205,
        1.5231289863586426
      ],
      "min": [
        0,
        0,
        0
      ],
      "type": "VEC3"
    },
    {
      "bufferView": 1,
      "componentType": 5126,
      "count": 2306,
      "max": [
        -2,
        2.5207440853118896
      ],
      "min": [
        -2.6447908878326416,
        2.0890769958496094
      ],
      "type": "VEC2"
    },
    {
      "bufferView": 2,
      "componentType": 5126,
      "count": 2306,
      "max": [
        1,
        1,
        1
      ],
      "min": [
        -1,
        -1,
        -1
      ],
      "type": "VEC3"
    },
    {
      "bufferView": 3,
      "componentType": 5123,
      "count": 12372,
      "max": [
        2305
      ],
      "min": [
        0
      ],
      "type": "SCALAR"
    }
  ],
  "materials": [
    {
      "pbrMetallicRoughness": {
        "metallicFactor": 0,
        "roughnessFactor": 0.6000000238418579,
        "baseColorTexture": {
          "index": 0,
          "texCoord": 0
        }
      },
      "name": "Fichte_Natur"
    }
  ],
  "textures": [
    {
      "sampler": 0,
      "source": 0,
      "name": "Fichte_Natur_baseColor"
    }
  ],
  "samplers": [
    {
      "magFilter": 9729,
      "minFilter": 9987,
      "wrapS": 10497,
      "wrapT": 10497
    }
  ],
  "images": [
    {
      "mimeType": "image/jpeg",
      "uri": "data:image/jpeg;base64,"
    }
  ],
  "meshes": [
    {
      "primitives": [
        {
          "mode": 4,
          "attributes": {
            "POSITION": 0,
            "TEXCOORD_0": 1,
            "NORMAL": 2
          },
          "indices": 3,
          "material": 0
        }
      ]
    }
  ]
}