{
  "asset": {
    "version": "2.0",
    "generator": "THREE.GLTFExporter r164"
  },
  "scenes": [
    {
      "name": "Scene",
      "nodes": [
        5
      ]
    }
  ],
  "scene": 0,
  "nodes": [
    {
      "matrix": [
        0.17757493257522583,
        0,
        0,
        0,
        0,
        -5.379566779867877e-8,
        -0.17757494139825047,
        0,
        0,
        0.17757494139825047,
        -5.379566779867877e-8,
        0,
        -0.9207592010498047,
        0.05592908710241318,
        -0.20131954550743103,
        1
      ],
      "name": "Material2037",
      "extras": {
        "name": "Material2.037"
      },
      "mesh": 0
    },
    {
      "matrix": [
        0.17757493257522583,
        0,
        0,
        0,
        0,
        -5.379566779867877e-8,
        -0.17757494139825047,
        0,
        0,
        0.17757494139825047,
        -5.379566779867877e-8,
        0,
        -0.9207592010498047,
        0.05592908710241318,
        -0.20131954550743103,
        1
      ],
      "name": "Material2038",
      "extras": {
        "name": "Material2.038"
      },
      "mesh": 1
    },
    {
      "matrix": [
        0.17757493257522583,
        0,
        0,
        0,
        0,
        -5.379566779867877e-8,
        -0.17757494139825047,
        0,
        0,
        0.17757494139825047,
        -5.379566779867877e-8,
        0,
        -0.9207592010498047,
        0.05592908710241318,
        -0.20131954550743103,
        1
      ],
      "name": "Material2039",
      "extras": {
        "name": "Material2.039"
      },
      "mesh": 2
    },
    {
      "matrix": [
        0.17757493257522583,
        0,
        0,
        0,
        0,
        -5.379566779867877e-8,
        -0.17757494139825047,
        0,
        0,
        0.17757494139825047,
        -5.379566779867877e-8,
        0,
        -0.9207592010498047,
        0.05592908710241318,
        -0.20131954550743103,
        1
      ],
      "name": "Material2040",
      "extras": {
        "name": "Material2.040"
      },
      "mesh": 3
    },
    {
      "matrix": [
        0.17757493257522583,
        0,
        0,
        0,
        0,
        -5.379566779867877e-8,
        -0.17757494139825047,
        0,
        0,
        0.17757494139825047,
        -5.379566779867877e-8,
        0,
        -0.9207592010498047,
        0.05592908710241318,
        -0.20131954550743103,
        1
      ],
      "name": "Material2041",
      "extras": {
        "name": "Material2.041"
      },
      "mesh": 4
    },
    {
      "matrix": [
        1,
        0,
        0,
        0,
        0,
        1,
        0,
        0,
        0,
        0,
        1,
        0,
        0,
        0,
        -1.0503283930143137,
        1
      ],
      "name": "white_queen.gltf",
      "children": [
        0,
        1,
        2,
        3,
        4
      ]
    }
  ],
  "bufferViews": [
    {
      "buffer": 0,
      "byteOffset": 0,
      "byteLength": 24192,
      "target": 34962,
      "byteStride": 12
    },
    {
      "buffer": 0,
      "byteOffset": 24192,
      "byteLength": 16128,
      "target": 34962,
      "byteStride": 8
    },
    {
      "buffer": 0,
      "byteOffset": 40320,
      "byteLength": 24192,
      "target": 34962,
      "byteStride": 12
    },
    {
      "buffer": 0,
      "byteOffset": 64512,
      "byteLength": 21000,
      "target": 34963
    },
    {
      "buffer": 0,
      "byteOffset": 85512,
      "byteLength": 2304,
      "target": 34962,
      "byteStride": 12
    },
    {
      "buffer": 0,
      "byteOffset": 87816,
      "byteLength": 1536,
      "target": 34962,
      "byteStride": 8
    },
    {
      "buffer": 0,
      "byteOffset": 89352,
      "byteLength": 2304,
      "target": 34962,
      "byteStride": 12
    },
    {
      "buffer": 0,
      "byteOffset": 91656,
      "byteLength": 1152,
      "target": 34963
    },
    {
      "buffer": 0,
      "byteOffset": 92808,
      "byteLength": 13560,
      "target": 34962,
      "byteStride": 12
    },
    {
      "buffer": 0,
      "byteOffset": 106368,
      "byteLength": 9040,
      "target": 34962,
      "byteStride": 8
    },
    {
      "buffer": 0,
      "byteOffset": 115408,
      "byteLength": 13560,
      "target": 34962,
      "byteStride": 12
    },
    {
      "buffer": 0,
      "byteOffset": 128968,
      "byteLength": 10080,
      "target": 34963
    },
    {
      "buffer": 0,
      "byteOffset": 139048,
      "byteLength": 3492,
      "target": 34962,
      "byteStride": 12
    },
    {
      "buffer": 0,
      "byteOffset": 142540,
      "byteLength": 2328,
      "target": 34962,
      "byteStride": 8
    },
    {
      "buffer": 0,
      "byteOffset": 144868,
      "byteLength": 3492,
      "target": 34962,
      "byteStride": 12
    },
    {
      "buffer": 0,
      "byteOffset": 148360,
      "byteLength": 1728,
      "target": 34963
    },
    {
      "buffer": 0,
      "byteOffset": 150088,
      "byteLength": 10416,
      "target": 34962,
      "byteStride": 12
    },
    {
      "buffer": 0,
      "byteOffset": 160504,
      "byteLength": 6944,
      "target": 34962,
      "byteStride": 8
    },
    {
      "buffer": 0,
      "byteOffset": 167448,
      "byteLength": 10416,
      "target": 34962,
      "byteStride": 12
    },
    {
      "buffer": 0,
      "byteOffset": 177864,
      "byteLength": 9528,
      "target": 34963
    }
  ],
  "buffers": [
    {
      "byteLength": 187392,
      "uri": "data:application/octet-stream;base64,"
    }
  ],
  "accessors": [
    {
      "bufferView": 0,
      "componentType": 5126,
      "count": 2016,
      "max": [
        1.1653540134429932,
        1.1653540134429932,
        1.9010809659957886
      ],
      "min": [
        0,
        0,
        0
      ],
      "type": "VEC3"
    },
    {
      "bufferView": 1,
      "componentType": 5126,
      "count": 2016,
      "max": [
        -2,
        2.114223003387451
      ],
      "min": [
        -2.80479097366333,
        1.6208900213241577
      ],
      "type": "VEC2"
    },
    {
      "bufferView": 2,
      "componentType": 5126,
      "count": 2016,
      "max": [
        1,
        1,
        1
      ],
      "min": [
        -1,
        -1,
        -1
      ],
      "type": "VEC3"
    },
    {
      "bufferView": 3,
      "componentType": 5123,
      "count": 10500,
      "max": [
        2015
      ],
      "min": [
        0
      ],
      "type": "SCALAR"
    },
    {
      "bufferView": 4,
      "componentType": 5126,
      "count": 192,
      "max": [
        0.8264567255973816,
        0.8264567255973816,
        1.971606969833374
      ],
      "min": [
        0.33889758586883545,
        0.33889758586883545,
        1.9010809659957886
      ],
      "type": "VEC3"
    },
    {
      "bufferView": 5,
      "componentType": 5126,
      "count": 192,
      "max": [
        -2.80479097366333,
        1.9707560539245605
      ],
      "min": [
        -2.8346469402313232,
        1.764356017112732
      ],
      "type": "VEC2"
    },
    {
      "bufferView": 6,
      "componentType": 5126,
      "count": 192,
      "max": [
        1,
        1,
        1
      ],
      "min": [
        -1,
        -1,
        -1
      ],
      "type": "VEC3"
    },
    {
      "bufferView": 7,
      "componentType": 5123,
      "count": 576,
      "max": [
        191
      ],
      "min": [
        0
      ],
      "type": "SCALAR"
    },
    {
      "bufferView": 8,
      "componentType": 5126,
      "count": 1130,
      "max": [
        1.0207630395889282,
        1.0058350563049316,
        2.730587959289551
      ],
      "min": [
        0.14459140598773956,
        0.15951889753341675,
        2.0421319007873535
      ],
      "type": "VEC3"
    },
    {
      "bufferView": 9,
      "componentType": 5126,
      "count": 1130,
      "max": [
        -2.864501953125,
        2.0530130863189697
      ],
      "min": [
        -3.155949115753174,
        1.6821000576019287
      ],
      "type": "VEC2"
    },
    {
      "bufferView": 10,
      "componentType": 5126,
      "count": 1130,
      "max": [
        1,
        1,
        1
      ],
      "min": [
        -1,
        -1,
        -1
      ],
      "type": "VEC3"
    },
    {
      "bufferView": 11,
      "componentType": 5123,
      "count": 5040,
      "max": [
        1129
      ],
      "min": [
        0
      ],
      "type": "SCALAR"
    },
    {
      "bufferView": 12,
      "componentType": 5126,
      "count": 291,
      "max": [
        0.8874015808105469,
        0.8874015808105469,
        2.0421319007873535
      ],
      "min": [
        0.27795279026031494,
        0.27795279026031494,
        1.971606969833374
      ],
      "type": "VEC3"
    },
    {
      "bufferView": 13,
      "componentType": 5126,
      "count": 291,
      "max": [
        -2.8346469402313232,
        1.996556043624878
      ],
      "min": [
        -2.864501953125,
        1.7385560274124146
      ],
      "type": "VEC2"
    },
    {
      "bufferView": 14,
      "componentType": 5126,
      "count": 291,
      "max": [
        1,
        1,
        1
      ],
      "min": [
        -1,
        -1,
        -1
      ],
      "type": "VEC3"
    },
    {
      "bufferView": 15,
      "componentType": 5123,
      "count": 864,
      "max": [
        290
      ],
      "min": [
        0
      ],
      "type": "SCALAR"
    },
    {
      "bufferView": 16,
      "componentType": 5126,
      "count": 868,
      "max": [
        0.8929808139801025,
        0.8929808139801025,
        3.157360076904297
      ],
      "min": [
        0.2723734974861145,
        0.2723734974861145,
        2.730587959289551
      ],
      "type": "VEC3"
    },
    {
      "bufferView": 17,
      "componentType": 5126,
      "count": 868,
      "max": [
        -3.155949115753174,
        1.998918056488037
      ],
      "min": [
        -3.336616039276123,
        1.7361949682235718
      ],
      "type": "VEC2"
    },
    {
      "bufferView": 18,
      "componentType": 5126,
      "count": 868,
      "max": [
        0.9998999834060669,
        0.9998999834060669,
        1
      ],
      "min": [
        -0.9998999834060669,
        -0.9998999834060669,
        -1
      ],
      "type": "VEC3"
    },
    {
      "bufferView": 19,
      "componentType": 5123,
      "count": 4764,
      "max": [
        867
      ],
      "min": [
        0
      ],
      "type": "SCALAR"
    }
  ],
  "materials": [
    {
      "pbrMetallicRoughness": {
        "metallicFactor": 0,
        "roughnessFactor": 0.6000000238418579,
        "baseColorTexture": {
          "index": 0,
          "texCoord": 0
        }
      },
      "name": "Fichte_Natur"
    }
  ],
  "textures": [
    {
      "sampler": 0,
      "source": 0,
      "name": "Fichte_Natur_baseColor"
    }
  ],
  "samplers": [
    {
      "magFilter": 9729,
      "minFilter": 9987,
      "wrapS": 10497,
      "wrapT": 10497
    }
  ],
  "images": [
    {
      "mimeType": "image/jpeg",
      "uri": "data:image/jpeg;base64,"
    }
  ],
  "meshes": [
    {
      "primitives": [
        {
          "mode": 4,
          "attributes": {
            "POSITION": 0,
            "TEXCOORD_0": 1,
            "NORMAL": 2
          },
          "indices": 3,
          "material": 0
        }
      ]
    },
    {
      "primitives": [
        {
          "mode": 4,
          "attributes": {
            "POSITION": 4,
            "TEXCOORD_0": 5,
            "NORMAL": 6
          },
          "indices": 7,
          "material": 0
        }
      ]
    },
    {
      "primitives": [
        {
          "mode": 4,
          "attributes": {
            "POSITION": 8,
            "TEXCOORD_0": 9,
            "NORMAL": 10
          },
          "indices": 11,
          "material": 0
        }
      ]
    },
    {
      "primitives": [
        {
          "mode": 4,
          "attributes": {
            "POSITION": 12,
            "TEXCOORD_0": 13,
            "NORMAL": 14
          },
          "indices": 15,
          "material": 0
        }
      ]
    },
    {
      "primitives": [
        {
          "mode": 4,
          "attributes": {
            "POSITION": 16,
            "TEXCOORD_0": 17,
            "NORMAL": 18
          },
          "indices": 19,
          "material": 0
        }
      ]
    }
  ]
}