{
  "asset": {
    "version": "2.0",
    "generator": "THREE.GLTFExporter r164"
  },
  "scenes": [
    {
      "name": "Scene",
      "nodes": [
        2
      ]
    }
  ],
  "scene": 0,
  "nodes": [
    {
      "matrix": [
        0.12556444231774144,
        6.914522040103085e-9,
        0.12556446350839115,
        0,
        0.12556445297167784,
        -1.3473705025087601e-8,
        -0.12556444811882375,
        0,
        -6.914522040103085e-9,
        0.17757496381418192,
        -1.920188392494975e-8,
        0,
        -0.9085183143615723,
        0.20860961079597473,
        -1.0357584953308105,
        1
      ],
      "name": "Material2006",
      "extras": {
        "name": "Material2.006"
      },
      "mesh": 0
    },
    {
      "matrix": [
        0.12556444231774144,
        6.914522040103085e-9,
        0.12556446350839115,
        0,
        0.12556445297167784,
        -1.3473705025087601e-8,
        -0.12556444811882375,
        0,
        -6.914522040103085e-9,
        0.17757496381418192,
        -1.920188392494975e-8,
        0,
        -0.9453265070915222,
        0.05592897906899452,
        -0.9989503622055054,
        1
      ],
      "name": "Material2011",
      "extras": {
        "name": "Material2.011"
      },
      "mesh": 1
    },
    {
      "matrix": [
        1,
        0,
        0,
        0,
        0,
        1,
        0,
        0,
        0,
        0,
        1,
        0,
        0.0009668663983833752,
        0,
        -0.36043487845932176,
        1
      ],
      "name": "white_knight.gltf",
      "children": [
        0,
        1
      ]
    }
  ],
  "bufferViews": [
    {
      "buffer": 0,
      "byteOffset": 0,
      "byteLength": 34152,
      "target": 34962,
      "byteStride": 12
    },
    {
      "buffer": 0,
      "byteOffset": 34152,
      "byteLength": 22768,
      "target": 34962,
      "byteStride": 8
    },
    {
      "buffer": 0,
      "byteOffset": 56920,
      "byteLength": 34152,
      "target": 34962,
      "byteStride": 12
    },
    {
      "buffer": 0,
      "byteOffset": 91072,
      "byteLength": 14640,
      "target": 34963
    },
    {
      "buffer": 0,
      "byteOffset": 105712,
      "byteLength": 20736,
      "target": 34962,
      "byteStride": 12
    },
    {
      "buffer": 0,
      "byteOffset": 126448,
      "byteLength": 13824,
      "target": 34962,
      "byteStride": 8
    },
    {
      "buffer": 0,
      "byteOffset": 140272,
      "byteLength": 20736,
      "target": 34962,
      "byteStride": 12
    },
    {
      "buffer": 0,
      "byteOffset": 161008,
      "byteLength": 18384,
      "target": 34963
    }
  ],
  "buffers": [
    {
      "byteLength": 179392,
      "uri": "data:application/octet-stream;base64,"
    }
  ],
  "accessors": [
    {
      "bufferView": 0,
      "componentType": 5126,
      "count": 2846,
      "max": [
        1.0023130178451538,
        0.4334017038345337,
        1.5740309953689575
      ],
      "min": [
        0,
        0,
        0
      ],
      "type": "VEC3"
    },
    {
      "bufferView": 1,
      "componentType": 5126,
      "count": 2846,
      "max": [
        -2.363986015319824,
        3.064405918121338
      ],
      "min": [
        -3.0303258895874023,
        2.640094041824341
      ],
      "type": "VEC2"
    },
    {
      "bufferView": 2,
      "componentType": 5126,
      "count": 2846,
      "max": [
        0.9997000098228455,
        1,
        1
      ],
      "min": [
        -0.9997000098228455,
        -1,
        -1
      ],
      "type": "VEC3"
    },
    {
      "bufferView": 3,
      "componentType": 5123,
      "count": 7320,
      "max": [
        2845
      ],
      "min": [
        0
      ],
      "type": "SCALAR"
    },
    {
      "bufferView": 4,
      "componentType": 5126,
      "count": 1728,
      "max": [
        1.0196850299835205,
        1.0196850299835205,
        0.8598095774650574
      ],
      "min": [
        0,
        0,
        0
      ],
      "type": "VEC3"
    },
    {
      "bufferView": 5,
      "componentType": 5126,
      "count": 1728,
      "max": [
        -2,
        3.0717599391937256
      ],
      "min": [
        -2.363986015319824,
        2.640094041824341
      ],
      "type": "VEC2"
    },
    {
      "bufferView": 6,
      "componentType": 5126,
      "count": 1728,
      "max": [
        1,
        1,
        1
      ],
      "min": [
        -1,
        -1,
        -1
      ],
      "type": "VEC3"
    },
    {
      "bufferView": 7,
      "componentType": 5123,
      "count": 9192,
      "max": [
        1727
      ],
      "min": [
        0
      ],
      "type": "SCALAR"
    }
  ],
  "materials": [
    {
      "pbrMetallicRoughness": {
        "metallicFactor": 0,
        "roughnessFactor": 0.6000000238418579,
        "baseColorTexture": {
          "index": 0,
          "texCoord": 0
        }
      },
      "name": "Fichte_Natur"
    }
  ],
  "textures": [
    {
      "sampler": 0,
      "source": 0,
      "name": "Fichte_Natur_baseColor"
    }
  ],
  "samplers": [
    {
      "magFilter": 9729,
      "minFilter": 9987,
      "wrapS": 10497,
      "wrapT": 10497
    }
  ],
  "images": [
    {
      "mimeType": "image/jpeg",
      "uri": "data:image/jpeg;base64,"
    }
  ],
  "meshes": [
    {
      "primitives": [
        {
          "mode": 4,
          "attributes": {
            "POSITION": 0,
            "TEXCOORD_0": 1,
            "NORMAL": 2
          },
          "indices": 3,
          "material": 0
        }
      ]
    },
    {
      "primitives": [
        {
          "mode": 4,
          "attributes": {
            "POSITION": 4,
            "TEXCOORD_0": 5,
            "NORMAL": 6
          },
          "indices": 7,
          "material": 0
        }
      ]
    }
  ]
}