{
	"asset":{
		"generator":"Khronos glTF Blender I/O v3.5.30",
		"version":"2.0"
	},
	"scene":0,
	"scenes":[
		{
			"name":"Scene",
			"nodes":[
				0,
				1,
				2,
				3
			]
		}
	],
	"nodes":[
		{
			"mesh":0,
			"name":"Material2.019",
			"rotation":[
				-0.70710688829422,
				0,
				0,
				0.7071066498756409
			],
			"scale":[
				0.17757493257522583,
				0.17757494747638702,
				0.17757494747638702
			],
			"translation":[
				-0.9078255891799927,
				0.05592894181609154,
				-1.262924075126648
			]
		},
		{
			"mesh":1,
			"name":"Material2.020",
			"rotation":[
				-0.70710688829422,
				0,
				0,
				0.7071066498756409
			],
			"scale":[
				0.17757493257522583,
				0.17757494747638702,
				0.17757494747638702
			],
			"translation":[
				-0.9078255891799927,
				0.05592894181609154,
				-1.262924075126648
			]
		},
		{
			"mesh":2,
			"name":"Material2.021",
			"rotation":[
				-0.70710688829422,
				0,
				0,
				0.7071066498756409
			],
			"scale":[
				0.17757493257522583,
				0.17757494747638702,
				0.17757494747638702
			],
			"translation":[
				-0.9078255891799927,
				0.05592894181609154,
				-1.262924075126648
			]
		},
		{
			"mesh":3,
			"name":"Material2.022",
			"rotation":[
				-0.70710688829422,
				0,
				0,
				0.7071066498756409
			],
			"scale":[
				0.17757493257522583,
				0.17757494747638702,
				0.17757494747638702
			],
			"translation":[
				-0.9078255891799927,
				0.05592894181609154,
				-1.262924075126648
			]
		}
	],
	"materials":[
		{
			"name":"Fichte_Natur",
			"pbrMetallicRoughness":{
				"baseColorTexture":{
					"index":0
				},
				"metallicFactor":0,
				"roughnessFactor":0.6000000238418579
			}
		}
	],
	"meshes":[
		{
			"name":"Material2.019",
			"primitives":[
				{
					"attributes":{
						"POSITION":0,
						"TEXCOORD_0":1,
						"NORMAL":2
					},
					"indices":3,
					"material":0
				}
			]
		},
		{
			"name":"Material2.020",
			"primitives":[
				{
					"attributes":{
						"POSITION":4,
						"TEXCOORD_0":5,
						"NORMAL":6
					},
					"indices":7,
					"material":0
				}
			]
		},
		{
			"name":"Material2.021",
			"primitives":[
				{
					"attributes":{
						"POSITION":8,
						"TEXCOORD_0":9,
						"NORMAL":10
					},
					"indices":11,
					"material":0
				}
			]
		},
		{
			"name":"Material2.022",
			"primitives":[
				{
					"attributes":{
						"POSITION":12,
						"TEXCOORD_0":13,
						"NORMAL":14
					},
					"indices":15,
					"material":0
				}
			]
		}
	],
	"textures":[
		{
			"sampler":0,
			"source":0
		}
	],
	"images":[
		{
			"bufferView":4,
			"mimeType":"image/jpeg",
			"name":"Fichte_Natur_baseColor"
		}
	],
	"accessors":[
		{
			"bufferView":0,
			"componentType":5126,
			"count":1392,
			"max":[
				1.0196850299835205,
				1.0196850299835205,
				1.2427170276641846
			],
			"min":[
				0,
				-4.440892098500626e-16,
				0
			],
			"type":"VEC3"
		},
		{
			"bufferView":1,
			"componentType":5126,
			"count":1392,
			"type":"VEC2"
		},
		{
			"bufferView":2,
			"componentType":5126,
			"count":1392,
			"type":"VEC3"
		},
		{
			"bufferView":3,
			"componentType":5123,
			"count":7332,
			"type":"SCALAR"
		},
		{
			"bufferView":5,
			"componentType":5126,
			"count":576,
			"max":[
				0.975980281829834,
				0.975980281829834,
				1.4837579727172852
			],
			"min":[
				0.04370475932955742,
				0.04370475932955742,
				1.2427170276641846
			],
			"type":"VEC3"
		},
		{
			"bufferView":6,
			"componentType":5126,
			"count":576,
			"type":"VEC2"
		},
		{
			"bufferView":7,
			"componentType":5126,
			"count":576,
			"type":"VEC3"
		},
		{
			"bufferView":8,
			"componentType":5123,
			"count":2304,
			"type":"SCALAR"
		},
		{
			"bufferView":9,
			"componentType":5126,
			"count":96,
			"max":[
				0.936610221862793,
				0.936610221862793,
				1.5231289863586426
			],
			"min":[
				0.08307483792304993,
				0.08307483792304993,
				1.4837579727172852
			],
			"type":"VEC3"
		},
		{
			"bufferView":10,
			"componentType":5126,
			"count":96,
			"type":"VEC2"
		},
		{
			"bufferView":11,
			"componentType":5126,
			"count":96,
			"type":"VEC3"
		},
		{
			"bufferView":12,
			"componentType":5123,
			"count":288,
			"type":"SCALAR"
		},
		{
			"bufferView":13,
			"componentType":5126,
			"count":560,
			"max":[
				0.975980281829834,
				0.975980281829834,
				1.75934898853302
			],
			"min":[
				0.04370475932955742,
				0.04370475932955742,
				1.5231289863586426
			],
			"type":"VEC3"
		},
		{
			"bufferView":14,
			"componentType":5126,
			"count":560,
			"type":"VEC2"
		},
		{
			"bufferView":15,
			"componentType":5126,
			"count":560,
			"type":"VEC3"
		},
		{
			"bufferView":16,
			"componentType":5123,
			"count":1452,
			"type":"SCALAR"
		}
	],
	"bufferViews":[
		{
			"buffer":0,
			"byteLength":16704,
			"byteOffset":0,
			"target":34962
		},
		{
			"buffer":0,
			"byteLength":11136,
			"byteOffset":16704,
			"target":34962
		},
		{
			"buffer":0,
			"byteLength":16704,
			"byteOffset":27840,
			"target":34962
		},
		{
			"buffer":0,
			"byteLength":14664,
			"byteOffset":44544,
			"target":34963
		},
		{
			"buffer":0,
			"byteLength":36794,
			"byteOffset":59208
		},
		{
			"buffer":0,
			"byteLength":6912,
			"byteOffset":96004,
			"target":34962
		},
		{
			"buffer":0,
			"byteLength":4608,
			"byteOffset":102916,
			"target":34962
		},
		{
			"buffer":0,
			"byteLength":6912,
			"byteOffset":107524,
			"target":34962
		},
		{
			"buffer":0,
			"byteLength":4608,
			"byteOffset":114436,
			"target":34963
		},
		{
			"buffer":0,
			"byteLength":1152,
			"byteOffset":119044,
			"target":34962
		},
		{
			"buffer":0,
			"byteLength":768,
			"byteOffset":120196,
			"target":34962
		},
		{
			"buffer":0,
			"byteLength":1152,
			"byteOffset":120964,
			"target":34962
		},
		{
			"buffer":0,
			"byteLength":576,
			"byteOffset":122116,
			"target":34963
		},
		{
			"buffer":0,
			"byteLength":6720,
			"byteOffset":122692,
			"target":34962
		},
		{
			"buffer":0,
			"byteLength":4480,
			"byteOffset":129412,
			"target":34962
		},
		{
			"buffer":0,
			"byteLength":6720,
			"byteOffset":133892,
			"target":34962
		},
		{
			"buffer":0,
			"byteLength":2904,
			"byteOffset":140612,
			"target":34963
		}
	],
	"samplers":[
		{
			"magFilter":9729,
			"minFilter":9987
		}
	],
	"buffers":[
		{
			"byteLength":143516,
			"uri":"data:application/octet-stream;base64,"
		}
	]
}
