{
  "asset": {
    "version": "2.0",
    "generator": "THREE.GLTFExporter r164"
  },
  "scenes": [
    {
      "name": "Scene",
      "nodes": [
        5
      ]
    }
  ],
  "scene": 0,
  "nodes": [
    {
      "matrix": [
        -2.1168586368780228e-8,
        2.1168585107034232e-8,
        0.17757496237754697,
        0,
        0.17757494747638702,
        0,
        2.1168583330677393e-8,
        0,
        1.2617458898232813e-15,
        0.17757494747638702,
        -2.1168584592423283e-8,
        0,
        -0.9221574664115906,
        0.05592910572886467,
        -0.060098543763160706,
        1
      ],
      "name": "Material2",
      "extras": {
        "name": "Material2"
      },
      "mesh": 0
    },
    {
      "matrix": [
        -2.1168586368780228e-8,
        2.1168585107034232e-8,
        0.17757496237754697,
        0,
        0.17757494747638702,
        0,
        2.1168583330677393e-8,
        0,
        1.2617458898232813e-15,
        0.17757494747638702,
        -2.1168584592423283e-8,
        0,
        -0.9221574664115906,
        0.05592910572886467,
        -0.060098543763160706,
        1
      ],
      "name": "Material2001",
      "extras": {
        "name": "Material2.001"
      },
      "mesh": 1
    },
    {
      "matrix": [
        -2.1168586368780228e-8,
        2.1168585107034232e-8,
        0.17757496237754697,
        0,
        0.17757494747638702,
        0,
        2.1168583330677393e-8,
        0,
        1.2617458898232813e-15,
        0.17757494747638702,
        -2.1168584592423283e-8,
        0,
        -0.9221574664115906,
        0.05592910572886467,
        -0.060098543763160706,
        1
      ],
      "name": "Material2002",
      "extras": {
        "name": "Material2.002"
      },
      "mesh": 2
    },
    {
      "matrix": [
        -2.1168586368780228e-8,
        2.1168585107034232e-8,
        0.17757496237754697,
        0,
        0.17757494747638702,
        0,
        2.1168583330677393e-8,
        0,
        1.2617458898232813e-15,
        0.17757494747638702,
        -2.1168584592423283e-8,
        0,
        -0.9221574664115906,
        0.05592910572886467,
        -0.060098543763160706,
        1
      ],
      "name": "Material2003",
      "extras": {
        "name": "Material2.003"
      },
      "mesh": 3
    },
    {
      "matrix": [
        -2.1168586368780228e-8,
        2.1168585107034232e-8,
        0.17757496237754697,
        0,
        0.17757494747638702,
        0,
        2.1168583330677393e-8,
        0,
        1.2617458898232813e-15,
        0.17757494747638702,
        -2.1168584592423283e-8,
        0,
        -0.9221574664115906,
        0.05592910572886467,
        -0.060098543763160706,
        1
      ],
      "name": "Material2004",
      "extras": {
        "name": "Material2.004"
      },
      "mesh": 4
    },
    {
      "matrix": [
        1,
        0,
        0,
        0,
        0,
        1,
        0,
        0,
        0,
        0,
        1,
        0,
        0,
        0,
        -1.4,
        1
      ],
      "name": "white_king.gltf",
      "children": [
        0,
        1,
        2,
        3,
        4
      ]
    }
  ],
  "bufferViews": [
    {
      "buffer": 0,
      "byteOffset": 0,
      "byteLength": 24768,
      "target": 34962,
      "byteStride": 12
    },
    {
      "buffer": 0,
      "byteOffset": 24768,
      "byteLength": 16512,
      "target": 34962,
      "byteStride": 8
    },
    {
      "buffer": 0,
      "byteOffset": 41280,
      "byteLength": 24768,
      "target": 34962,
      "byteStride": 12
    },
    {
      "buffer": 0,
      "byteOffset": 66048,
      "byteLength": 21576,
      "target": 34963
    },
    {
      "buffer": 0,
      "byteOffset": 87624,
      "byteLength": 15012,
      "target": 34962,
      "byteStride": 12
    },
    {
      "buffer": 0,
      "byteOffset": 102636,
      "byteLength": 10008,
      "target": 34962,
      "byteStride": 8
    },
    {
      "buffer": 0,
      "byteOffset": 112644,
      "byteLength": 15012,
      "target": 34962,
      "byteStride": 12
    },
    {
      "buffer": 0,
      "byteOffset": 127656,
      "byteLength": 10224,
      "target": 34963
    },
    {
      "buffer": 0,
      "byteOffset": 137880,
      "byteLength": 12096,
      "target": 34962,
      "byteStride": 12
    },
    {
      "buffer": 0,
      "byteOffset": 149976,
      "byteLength": 8064,
      "target": 34962,
      "byteStride": 8
    },
    {
      "buffer": 0,
      "byteOffset": 158040,
      "byteLength": 12096,
      "target": 34962,
      "byteStride": 12
    },
    {
      "buffer": 0,
      "byteOffset": 170136,
      "byteLength": 10368,
      "target": 34963
    },
    {
      "buffer": 0,
      "byteOffset": 180504,
      "byteLength": 2304,
      "target": 34962,
      "byteStride": 12
    },
    {
      "buffer": 0,
      "byteOffset": 182808,
      "byteLength": 1536,
      "target": 34962,
      "byteStride": 8
    },
    {
      "buffer": 0,
      "byteOffset": 184344,
      "byteLength": 2304,
      "target": 34962,
      "byteStride": 12
    },
    {
      "buffer": 0,
      "byteOffset": 186648,
      "byteLength": 1152,
      "target": 34963
    },
    {
      "buffer": 0,
      "byteOffset": 187800,
      "byteLength": 3528,
      "target": 34962,
      "byteStride": 12
    },
    {
      "buffer": 0,
      "byteOffset": 191328,
      "byteLength": 2352,
      "target": 34962,
      "byteStride": 8
    },
    {
      "buffer": 0,
      "byteOffset": 193680,
      "byteLength": 3528,
      "target": 34962,
      "byteStride": 12
    },
    {
      "buffer": 0,
      "byteOffset": 197208,
      "byteLength": 1728,
      "target": 34963
    }
  ],
  "buffers": [
    {
      "byteLength": 198936,
      "uri": "data:application/octet-stream;base64,"
    }
  ],
  "accessors": [
    {
      "bufferView": 0,
      "componentType": 5126,
      "count": 2064,
      "max": [
        1.1811020374298096,
        1.1811020374298096,
        2.125983953475952
      ],
      "min": [
        -1.1102230246251565e-16,
        0,
        0
      ],
      "type": "VEC3"
    },
    {
      "bufferView": 1,
      "componentType": 5126,
      "count": 2064,
      "max": [
        -2,
        2.25
      ],
      "min": [
        -2.9000000953674316,
        1.75
      ],
      "type": "VEC2"
    },
    {
      "bufferView": 2,
      "componentType": 5126,
      "count": 2064,
      "max": [
        1,
        1,
        1
      ],
      "min": [
        -1,
        -1,
        -1
      ],
      "type": "VEC3"
    },
    {
      "bufferView": 3,
      "componentType": 5123,
      "count": 10788,
      "max": [
        2063
      ],
      "min": [
        0
      ],
      "type": "SCALAR"
    },
    {
      "bufferView": 4,
      "componentType": 5126,
      "count": 1251,
      "max": [
        0.861417293548584,
        0.861417293548584,
        3.59212589263916
      ],
      "min": [
        0.3196850121021271,
        0.3196850121021271,
        2.98796010017395
      ],
      "type": "VEC3"
    },
    {
      "bufferView": 5,
      "componentType": 5126,
      "count": 1251,
      "max": [
        -3.2649030685424805,
        2.1146669387817383
      ],
      "min": [
        -3.52066707611084,
        1.8853329420089722
      ],
      "type": "VEC2"
    },
    {
      "bufferView": 6,
      "componentType": 5126,
      "count": 1251,
      "max": [
        1,
        1,
        1
      ],
      "min": [
        -1,
        -1,
        -1
      ],
      "type": "VEC3"
    },
    {
      "bufferView": 7,
      "componentType": 5123,
      "count": 5112,
      "max": [
        1250
      ],
      "min": [
        0
      ],
      "type": "SCALAR"
    },
    {
      "bufferView": 8,
      "componentType": 5126,
      "count": 1008,
      "max": [
        1.0286370515823364,
        1.0286370515823364,
        2.98796010017395
      ],
      "min": [
        0.15246550738811493,
        0.15246550738811493,
        2.2827069759368896
      ],
      "type": "VEC3"
    },
    {
      "bufferView": 9,
      "componentType": 5126,
      "count": 1008,
      "max": [
        -2.966346025466919,
        2.1854560375213623
      ],
      "min": [
        -3.2649030685424805,
        1.8145439624786377
      ],
      "type": "VEC2"
    },
    {
      "bufferView": 10,
      "componentType": 5126,
      "count": 1008,
      "max": [
        1,
        1,
        1
      ],
      "min": [
        -1,
        -1,
        -1
      ],
      "type": "VEC3"
    },
    {
      "bufferView": 11,
      "componentType": 5123,
      "count": 5184,
      "max": [
        1007
      ],
      "min": [
        0
      ],
      "type": "SCALAR"
    },
    {
      "bufferView": 12,
      "componentType": 5126,
      "count": 192,
      "max": [
        0.861417293548584,
        0.861417293548584,
        2.204345941543579
      ],
      "min": [
        0.3196850121021271,
        0.3196850121021271,
        2.125983953475952
      ],
      "type": "VEC3"
    },
    {
      "bufferView": 13,
      "componentType": 5126,
      "count": 192,
      "max": [
        -2.9000000953674316,
        2.1146669387817383
      ],
      "min": [
        -2.9331729412078857,
        1.8853329420089722
      ],
      "type": "VEC2"
    },
    {
      "bufferView": 14,
      "componentType": 5126,
      "count": 192,
      "max": [
        1,
        1,
        1
      ],
      "min": [
        -1,
        -1,
        -1
      ],
      "type": "VEC3"
    },
    {
      "bufferView": 15,
      "componentType": 5123,
      "count": 576,
      "max": [
        191
      ],
      "min": [
        0
      ],
      "type": "SCALAR"
    },
    {
      "bufferView": 16,
      "componentType": 5126,
      "count": 294,
      "max": [
        0.9291338920593262,
        0.9291338920593262,
        2.2827069759368896
      ],
      "min": [
        0.25196850299835205,
        0.25196850299835205,
        2.204345941543579
      ],
      "type": "VEC3"
    },
    {
      "bufferView": 17,
      "componentType": 5126,
      "count": 294,
      "max": [
        -2.9331729412078857,
        2.1433329582214355
      ],
      "min": [
        -2.966346025466919,
        1.8566670417785645
      ],
      "type": "VEC2"
    },
    {
      "bufferView": 18,
      "componentType": 5126,
      "count": 294,
      "max": [
        1,
        1,
        1
      ],
      "min": [
        -1,
        -1,
        -1
      ],
      "type": "VEC3"
    },
    {
      "bufferView": 19,
      "componentType": 5123,
      "count": 864,
      "max": [
        293
      ],
      "min": [
        0
      ],
      "type": "SCALAR"
    }
  ],
  "materials": [
    {
      "pbrMetallicRoughness": {
        "metallicFactor": 0,
        "roughnessFactor": 0.6000000238418579,
        "baseColorTexture": {
          "index": 0,
          "texCoord": 0
        }
      },
      "name": "Fichte_Natur"
    }
  ],
  "textures": [
    {
      "sampler": 0,
      "source": 0,
      "name": "Fichte_Natur_baseColor"
    }
  ],
  "samplers": [
    {
      "magFilter": 9729,
      "minFilter": 9987,
      "wrapS": 10497,
      "wrapT": 10497
    }
  ],
  "images": [
    {
      "mimeType": "image/jpeg",
      "uri": "data:image/jpeg;base64,"
    }
  ],
  "meshes": [
    {
      "primitives": [
        {
          "mode": 4,
          "attributes": {
            "POSITION": 0,
            "TEXCOORD_0": 1,
            "NORMAL": 2
          },
          "indices": 3,
          "material": 0
        }
      ]
    },
    {
      "primitives": [
        {
          "mode": 4,
          "attributes": {
            "POSITION": 4,
            "TEXCOORD_0": 5,
            "NORMAL": 6
          },
          "indices": 7,
          "material": 0
        }
      ]
    },
    {
      "primitives": [
        {
          "mode": 4,
          "attributes": {
            "POSITION": 8,
            "TEXCOORD_0": 9,
            "NORMAL": 10
          },
          "indices": 11,
          "material": 0
        }
      ]
    },
    {
      "primitives": [
        {
          "mode": 4,
          "attributes": {
            "POSITION": 12,
            "TEXCOORD_0": 13,
            "NORMAL": 14
          },
          "indices": 15,
          "material": 0
        }
      ]
    },
    {
      "primitives": [
        {
          "mode": 4,
          "attributes": {
            "POSITION": 16,
            "TEXCOORD_0": 17,
            "NORMAL": 18
          },
          "indices": 19,
          "material": 0
        }
      ]
    }
  ]
}