{
	"asset":{
		"generator":"Khronos glTF Blender I/O v3.5.30",
		"version":"2.0"
	},
	"scene":0,
	"scenes":[
		{
			"name":"Scene",
			"nodes":[
				0
			]
		}
	],
	"nodes":[
		{
			"mesh":0,
			"name":"Material2.017",
			"rotation":[
				-0.27059805393218994,
				-0.6532815098762512,
				-0.6532815098762512,
				0.27059805393218994
			],
			"scale":[
				0.17757496237754822,
				0.17757496237754822,
				0.17757494747638702
			],
			"translation":[
				-0.46773335337638855,
				0.05592891573905945,
				-1.4814956188201904
			]
		}
	],
	"materials":[
		{
			"name":"Fichte_Natur",
			"pbrMetallicRoughness":{
				"baseColorTexture":{
					"index":0
				},
				"metallicFactor":0,
				"roughnessFactor":0.6000000238418579
			}
		}
	],
	"meshes":[
		{
			"name":"Material2.017",
			"primitives":[
				{
					"attributes":{
						"POSITION":0,
						"TEXCOORD_0":1,
						"NORMAL":2
					},
					"indices":3,
					"material":0
				}
			]
		}
	],
	"textures":[
		{
			"sampler":0,
			"source":0
		}
	],
	"images":[
		{
			"bufferView":4,
			"mimeType":"image/jpeg",
			"name":"Fichte_Natur_baseColor"
		}
	],
	"accessors":[
		{
			"bufferView":0,
			"componentType":5126,
			"count":2306,
			"max":[
				1.0196850299835205,
				1.0196850299835205,
				1.5231289863586426
			],
			"min":[
				0,
				0,
				0
			],
			"type":"VEC3"
		},
		{
			"bufferView":1,
			"componentType":5126,
			"count":2306,
			"type":"VEC2"
		},
		{
			"bufferView":2,
			"componentType":5126,
			"count":2306,
			"type":"VEC3"
		},
		{
			"bufferView":3,
			"componentType":5123,
			"count":12372,
			"type":"SCALAR"
		}
	],
	"bufferViews":[
		{
			"buffer":0,
			"byteLength":27672,
			"byteOffset":0,
			"target":34962
		},
		{
			"buffer":0,
			"byteLength":18448,
			"byteOffset":27672,
			"target":34962
		},
		{
			"buffer":0,
			"byteLength":27672,
			"byteOffset":46120,
			"target":34962
		},
		{
			"buffer":0,
			"byteLength":24744,
			"byteOffset":73792,
			"target":34963
		},
		{
			"buffer":0,
			"byteLength":36794,
			"byteOffset":98536
		}
	],
	"samplers":[
		{
			"magFilter":9729,
			"minFilter":9987
		}
	],
	"buffers":[
		{
			"byteLength":135332,
			"uri":"data:application/octet-stream;base64,"
		}
	]
}
